<?xml version="1.0" encoding="utf-8"?>
<!-- Generator: Adobe Illustrator 26.0.1, SVG Export Plug-In . SVG Version: 6.00 Build 0)  -->
<svg version="1.1" id="Layer_1" xmlns="http://www.w3.org/2000/svg" xmlns:xlink="http://www.w3.org/1999/xlink" x="0px" y="0px"
	 viewBox="0 0 60 60" style="enable-background:new 0 0 60 60;" xml:space="preserve">
<style type="text/css">
	.dgm-01{fill:#FAA21F;}
	.dgm-02{fill:#232323;}
	.dgm-03{fill:#FFEBCE;}
	.dgm-04{fill:#666766;}
	.dgm-rotate-dot{
		animation: dgm-rotate 10s linear infinite;
		transform-origin: center;
		transform-box: fill-box;
	}
	@keyframes dgm-rotate{
		from{
			transform: rotate(0deg);
		}
		to{
			transform: rotate(360deg);
		}
	}
</style>
<g>
	<g class="dgm-rotate-dot">
		<g>
			<path class="dgm-01" d="M30,55.6c-0.3,0-0.4-0.2-0.4-0.4V4.8c0-0.3,0.2-0.4,0.4-0.4c0.3,0,0.4,0.2,0.4,0.4v50.3
				C30.4,55.4,30.3,55.6,30,55.6z"/>
			<circle class="dgm-02" cx="30" cy="4.7" r="3.5"/>
			<path class="dgm-01" d="M30,8.6c-2.2,0-3.9-1.8-3.9-3.9s1.8-3.9,3.9-3.9s3.9,1.8,3.9,3.9S32.2,8.6,30,8.6z M30,1.6c-1.7,0-3,1.3-3,3
				s1.3,3,3,3s3-1.3,3-3S31.7,1.6,30,1.6z"/>
			<path class="dgm-01" d="M30,59.3c-2.2,0-3.9-1.8-3.9-3.9s1.8-3.9,3.9-3.9s3.9,1.8,3.9,3.9S32.2,59.3,30,59.3z M30,52.3
				c-1.7,0-3,1.3-3,3c0,1.7,1.3,3,3,3s3-1.3,3-3C33,53.6,31.7,52.3,30,52.3z"/>
			<circle class="dgm-02" cx="30" cy="55.3" r="3"/>
		</g>
		<g>
			<path class="dgm-01" d="M55.2,30.4H4.8c-0.3,0-0.4-0.2-0.4-0.4c0-0.3,0.2-0.4,0.4-0.4h50.3c0.3,0,0.4,0.2,0.4,0.4
				C55.6,30.3,55.4,30.4,55.2,30.4z"/>
			<circle class="dgm-02" cx="4.7" cy="30" r="3.5"/>
			<path class="dgm-01" d="M4.7,33.9c-2.2,0-3.9-1.8-3.9-3.9s1.8-3.9,3.9-3.9s3.9,1.8,3.9,3.9S6.8,33.9,4.7,33.9z M4.7,27
				c-1.7,0-3,1.3-3,3s1.3,3,3,3s3-1.3,3-3S6.3,27,4.7,27z"/>
			<g>
				<circle class="dgm-02" cx="55.3" cy="30" r="3.5"/>
				<path class="dgm-01" d="M55.3,33.9c-2.2,0-3.9-1.8-3.9-3.9s1.8-3.9,3.9-3.9c2.2,0,3.9,1.8,3.9,3.9S57.5,33.9,55.3,33.9z M55.3,27
					c-1.7,0-3,1.3-3,3s1.3,3,3,3s3-1.3,3-3S57,27,55.3,27z"/>
			</g>
		</g>
		<g>
			<path class="dgm-01" d="M47.8,48.3c-0.1,0-0.2,0-0.3-0.1L11.9,12.5c-0.2-0.2-0.2-0.5,0-0.6s0.5-0.2,0.6,0l35.6,35.6
				c0.2,0.2,0.2,0.5,0,0.6C48,48.2,47.9,48.3,47.8,48.3z"/>
			<circle class="dgm-02" cx="12.1" cy="12.1" r="3.5"/>
			<path class="dgm-01" d="M12.1,16c-1,0-2-0.4-2.8-1.1c-1.5-1.5-1.5-4,0-5.5C10,8.6,11,8.2,12.1,8.2s2,0.4,2.8,1.2l0,0l0,0
				c1.5,1.5,1.5,4,0,5.5C14.1,15.6,13.1,16,12.1,16z M12.1,9.1c-0.8,0-1.6,0.3-2.1,0.9c-1.2,1.2-1.2,3.1,0,4.3s3.1,1.2,4.3,0
				s1.2-3.1,0-4.3l0,0C13.6,9.4,12.9,9.1,12.1,9.1z"/>
			<g>
				<circle class="dgm-02" cx="47.9" cy="47.9" r="3.5"/>
				<path class="dgm-01" d="M47.9,51.8c-1,0-2-0.4-2.8-1.2C44.4,49.9,44,49,44,47.9c0-1,0.4-2,1.2-2.8c1.5-1.5,4-1.5,5.5,0l0,0
					c1.5,1.5,1.5,4,0,5.5C49.9,51.4,49,51.8,47.9,51.8z M47.9,44.9c-0.8,0-1.5,0.3-2.1,0.9c-0.6,0.6-0.9,1.3-0.9,2.1
					s0.3,1.6,0.9,2.1c1.1,1.1,3.1,1.1,4.3,0c1.2-1.2,1.2-3.1,0-4.3l0,0C49.5,45.2,48.7,44.9,47.9,44.9z"/>
			</g>
		</g>
		<g>
			<path class="dgm-01" d="M12.2,48.3c-0.1,0-0.2,0-0.3-0.1c-0.2-0.2-0.2-0.5,0-0.6L47.5,12c0.2-0.2,0.5-0.2,0.6,0
				c0.2,0.2,0.2,0.5,0,0.6L12.5,48.1C12.4,48.2,12.3,48.3,12.2,48.3z"/>
			<circle class="dgm-02" cx="12.1" cy="47.9" r="3.5"/>
			<path class="dgm-01" d="M12.1,51.8c-1,0-2-0.4-2.8-1.2c-1.5-1.5-1.5-4,0-5.5l0,0c1.5-1.5,4-1.5,5.5,0s1.5,4,0,5.5
				C14.1,51.4,13.1,51.8,12.1,51.8z M10,45.8C8.8,47,8.8,48.9,10,50c1.1,1.1,3.1,1.1,4.3,0c1.2-1.2,1.2-3.1,0-4.3
				C13,44.6,11.1,44.6,10,45.8L10,45.8z"/>
			<g>
				<circle class="dgm-02" cx="47.9" cy="12.1" r="3.5"/>
				<path class="dgm-01" d="M47.9,16c-1,0-2-0.4-2.8-1.2c-1.5-1.5-1.5-4,0-5.5l0,0c1.5-1.5,4-1.5,5.5,0s1.5,4,0,5.5
					C49.9,15.6,49,16,47.9,16z M45.8,10c-1.2,1.2-1.2,3.1,0,4.3c1.1,1.1,3.1,1.1,4.3,0c1.2-1.2,1.2-3.1,0-4.3
					C48.9,8.8,47,8.8,45.8,10L45.8,10z"/>
			</g>
		</g>
	</g>
	<g>
		<g>
			<circle class="dgm-02" cx="27.5" cy="27.5" r="15.3"/>
			<path class="dgm-01" d="M27.5,43.2c-8.7,0-15.7-7.1-15.7-15.7s7.1-15.7,15.7-15.7s15.7,7.1,15.7,15.7S36.2,43.2,27.5,43.2z
				 M27.5,12.7c-8.2,0-14.8,6.7-14.8,14.8s6.7,14.8,14.8,14.8s14.8-6.7,14.8-14.8S35.7,12.7,27.5,12.7z"/>
		</g>
		<g>
			<circle class="dgm-02" cx="29.8" cy="29.8" r="15.3"/>
			<path class="dgm-01" d="M29.8,45.5c-8.7,0-15.7-7.1-15.7-15.7s7.1-15.7,15.7-15.7s15.7,7.1,15.7,15.7S38.5,45.5,29.8,45.5z M29.8,15
				C21.6,15,15,21.6,15,29.8s6.7,14.8,14.8,14.8S44.6,38,44.6,29.8S38,15,29.8,15z"/>
		</g>
		<g>
			<path class="dgm-02" d="M26.3,32.8l2.2,5.2c0.3,0.8,0,1.7-0.8,2s-1.7,0-2-0.8L23.5,34c-0.3-0.8,0-1.7,0.8-2c0.4-0.2,0.8-0.2,1.2,0
				C25.8,32.1,26.1,32.4,26.3,32.8z"/>
			<path class="dgm-01" d="M27.1,40.5c-0.3,0-0.5,0-0.7-0.1c-0.5-0.2-0.9-0.6-1.1-1.1l-2.2-5.2c-0.2-0.5-0.2-1,0-1.5s0.6-0.9,1.1-1.1
				s1-0.2,1.5,0s0.9,0.6,1.1,1.1l0,0l2.2,5.2c0.4,1,0,2.2-1,2.6C27.6,40.5,27.3,40.5,27.1,40.5z M24.9,32.3c-0.1,0-0.3,0-0.4,0.1
				c-0.3,0.1-0.5,0.3-0.6,0.6s-0.1,0.6,0,0.8l2.2,5.2c0.1,0.3,0.3,0.5,0.6,0.6c0.3,0.1,0.5,0.1,0.8,0c0.5-0.2,0.8-0.9,0.6-1.4
				L25.9,33c-0.1-0.3-0.3-0.5-0.6-0.6C25.2,32.4,25,32.3,24.9,32.3z"/>
			<ellipse transform="matrix(0.921 -0.3896 0.3896 0.921 -7.3494 16.3441)" class="dgm-02" cx="36.6" cy="26.3" rx="2.2" ry="3"/>
			<path class="dgm-01" d="M37.1,29.6c-0.4,0-0.9-0.1-1.4-0.4c-0.7-0.4-1.3-1.1-1.6-1.9c-0.4-0.8-0.4-1.7-0.3-2.5
				c0.2-0.8,0.7-1.5,1.4-1.7c0.7-0.3,1.5-0.2,2.2,0.2c0.7,0.4,1.3,1.1,1.6,1.9l0,0c0.4,0.8,0.4,1.7,0.3,2.5
				c-0.2,0.8-0.7,1.5-1.4,1.7C37.7,29.6,37.4,29.6,37.1,29.6z M36.1,23.8c-0.2,0-0.3,0-0.5,0.1c-0.4,0.2-0.7,0.6-0.8,1.1
				c-0.1,0.6-0.1,1.3,0.2,2s0.7,1.2,1.2,1.5s1,0.4,1.4,0.2c0.4-0.2,0.7-0.6,0.8-1.1c0.1-0.6,0.1-1.3-0.2-2l0,0
				c-0.3-0.7-0.7-1.2-1.2-1.5C36.7,23.9,36.4,23.8,36.1,23.8z"/>
			<g>
				<path class="dgm-03" d="M37.2,34.4l-9.1-0.6l-2.9-6.7l5.9-7c0.9-1,2.5-0.7,3,0.5l4.8,11.3C39.5,33.1,38.6,34.5,37.2,34.4z"/>
				<path class="dgm-01" d="M37.3,34.9C37.2,34.9,37.2,34.9,37.3,34.9l-9.2-0.6c-0.2,0-0.3-0.1-0.4-0.3l-2.9-6.7
					c-0.1-0.2,0-0.3,0.1-0.5l5.9-7c0.5-0.6,1.3-0.8,2.1-0.7c0.8,0.1,1.4,0.6,1.7,1.3l4.8,11.3c0.3,0.7,0.2,1.5-0.2,2.1
					C38.7,34.5,38,34.9,37.3,34.9z M37.3,34c0.5,0,0.9-0.2,1.2-0.6c0.3-0.4,0.3-0.9,0.1-1.3l-4.8-11.3c-0.2-0.4-0.6-0.7-1-0.8
					c-0.5-0.1-0.9,0.1-1.2,0.4l-5.7,6.8l2.6,6.2L37.3,34z"/>
			</g>
			<g>
				<path class="dgm-04" d="M25.3,27.1l2.9,6.7l-2.5,1c-1.9,0.8-4-0.1-4.8-1.9l0,0c-0.8-1.9,0.1-4,1.9-4.8L25.3,27.1z"/>
				<path class="dgm-01" d="M24.2,35.6c-1.6,0-3.1-0.9-3.8-2.5c-0.4-1-0.4-2.1,0-3.1s1.2-1.8,2.2-2.2l2.5-1c0.1,0,0.2,0,0.3,0
					c0.1,0,0.2,0.1,0.2,0.2l2.9,6.7c0.1,0.2,0,0.5-0.2,0.6l-2.5,1C25.3,35.5,24.8,35.6,24.2,35.6z M25,27.7l-2,0.9
					c-1.6,0.7-2.4,2.6-1.7,4.2c0.7,1.6,2.6,2.4,4.2,1.7l2-0.9L25,27.7z"/>
			</g>
		</g>
	</g>
</g>
</svg>
