<?xml version="1.0" encoding="utf-8"?>
<!-- Generator: Adobe Illustrator 26.0.1, SVG Export Plug-In . SVG Version: 6.00 Build 0)  -->
<svg version="1.1" id="Layer_1" xmlns="http://www.w3.org/2000/svg" xmlns:xlink="http://www.w3.org/1999/xlink" x="0px" y="0px"
	 viewBox="0 0 80 80" style="enable-background:new 0 0 80 80;" xml:space="preserve">
<style type="text/css">
	.st0{fill:#3177B9;}
	.st1{fill:#3C4752;}
</style>
<g>
	<path class="st0" d="M22.9,54c0.3,0.2,0.7,0.3,1.1,0.3c0.5,0,1-0.2,1.3-0.6c0.4-0.5,0.5-1.1,0.4-1.7l-0.4-2.5l1.8-1.8
		c0.8-0.6,1-1.8,0.4-2.6c-0.3-0.4-0.9-0.7-1.4-0.7l-2.5-0.4l-1.1-2.3c-0.3-0.7-1-1.2-1.7-1.2c-0.8,0-1.4,0.5-1.7,1.2l-1.1,2.3
		l-2.5,0.4c-1,0-1.8,0.9-1.8,1.9c0,0.6,0.3,1.1,0.7,1.4l1.8,1.8L15.6,52c-0.1,0.6,0,1.3,0.4,1.7c0.6,0.7,1.7,0.8,2.4,0.3l2.2-1.1
		L22.9,54z M18,51.7l0.5-3l-2.2-2.1l3-0.4l1.3-2.7l1.3,2.7l3,0.4l-2.2,2.1l0.5,3l-2.7-1.4L18,51.7z M14.6,38.3l-0.4-2.2l1.5-1.5
		c0.6-0.5,0.8-1.2,0.6-1.9c-0.3-0.7-0.9-1.1-1.6-1.2l-2.1-0.3l-0.9-2c-0.3-0.7-0.9-1.2-1.7-1.2c-0.7,0-1.4,0.5-1.6,1.2l-0.9,2
		l-2.1,0.3c-0.7,0.1-1.3,0.5-1.6,1.2c-0.2,0.7,0,1.5,0.6,1.9L6,36.1l-0.4,2.2c-0.1,0.6,0,1.2,0.4,1.7c0.6,0.6,1.6,0.8,2.3,0.3l1.8-1
		l1.8,1c0.3,0.2,0.7,0.3,1,0.3c0.5,0,0.9-0.2,1.2-0.6C14.6,39.5,14.7,38.9,14.6,38.3z M11.8,35.4l0.4,2.4l-2.1-1.1L8,37.8l0.4-2.4
		l-1.8-1.8l2.4-0.4l1-2.2l1,2.2l2.4,0.4L11.8,35.4z M65.6,44.4l-2.5-0.4L62,41.8c-0.3-1-1.4-1.5-2.4-1.1c-0.5,0.2-0.9,0.6-1.1,1.1
		l-1.1,2.3l-2.5,0.4c-1,0-1.8,0.9-1.8,1.9c0,0.6,0.3,1.1,0.7,1.4l1.8,1.8L55.2,52c-0.1,0.6,0,1.3,0.4,1.8c0.6,0.7,1.7,0.8,2.4,0.3
		l2.2-1.1l2.2,1.1c0.3,0.2,0.7,0.3,1.1,0.3c0.5,0,1-0.2,1.3-0.6c0.4-0.5,0.5-1.1,0.4-1.7l-0.4-2.5l1.8-1.8c0.8-0.6,1-1.8,0.4-2.6
		C66.7,44.8,66.2,44.5,65.6,44.4L65.6,44.4z M62.4,48.7l0.5,3l-2.7-1.4l-2.7,1.4l0.5-3l-2.2-2.1l3-0.4l1.3-2.7l1.3,2.7l3,0.4
		L62.4,48.7z M77.1,32.6c-0.3-0.7-0.9-1.1-1.6-1.2l-2.1-0.3l-0.9-2c-0.3-0.9-1.2-1.4-2.1-1.2c-0.6,0.2-1,0.6-1.2,1.2l-0.9,2
		l-2.1,0.3c-0.7,0.1-1.3,0.5-1.6,1.2c-0.2,0.7,0,1.5,0.6,1.9l1.5,1.5l-0.4,2.2c-0.1,0.6,0,1.2,0.4,1.7c0.6,0.6,1.6,0.8,2.3,0.3
		l1.8-1l1.8,1c0.3,0.2,0.7,0.3,1,0.3c0.5,0,0.9-0.2,1.2-0.6c0.4-0.5,0.5-1.1,0.4-1.7L75,36.1l1.5-1.5C77.1,34.1,77.3,33.3,77.1,32.6
		L77.1,32.6z M72.6,35.4l0.4,2.4l-2.1-1.1l-2.1,1.1l0.4-2.4l-1.8-1.8l2.4-0.4l1-2.2l1,2.2l2.4,0.4L72.6,35.4z"/>
	<path class="st0" d="M46.9,58.5l3-3.1c0.7-0.6,1-1.6,0.8-2.6c-0.4-0.9-1.2-1.5-2.1-1.5l-4.1-0.6l-1.9-3.9c-0.7-1.5-1.7-1.6-2.1-1.6
		s-1.4,0.2-2.1,1.6l-1.9,3.9l-4.1,0.6c-0.9,0.1-1.8,0.7-2.1,1.5c-0.2,0.9,0.1,1.9,0.8,2.6l3,3.1l-0.7,4.4c-0.2,0.8,0,1.6,0.5,2.3
		c0.7,0.8,1.8,0.9,3,0.3l3.7-2l3.7,2c0.4,0.3,0.9,0.4,1.4,0.4c0.6,0,1.1-0.2,1.5-0.7c0.5-0.6,0.7-1.5,0.5-2.3L46.9,58.5z M45.3,63.2
		c0,0.1,0,0.1,0,0.2l-0.1-0.1l-4.8-2.6l-4.8,2.6l-0.1,0.1c0-0.1,0-0.1,0-0.2l0.9-5.5l-3.8-3.9c-0.1-0.1-0.1-0.1-0.2-0.2l0.2,0
		l5.3-0.8l2.4-5l0.1-0.1l0.1,0.1l2.4,5l5.3,0.8l0.2,0c0,0.1-0.1,0.1-0.2,0.2l-3.8,3.9L45.3,63.2z"/>
</g>
<g>
	<path class="st1" d="M40.5,34.3c5.4,0,9.7-4.4,9.7-9.7s-4.4-9.7-9.7-9.7s-9.7,4.4-9.7,9.7S35.1,34.3,40.5,34.3z M40.5,17.1
		c4.1,0,7.5,3.3,7.5,7.5S44.6,32,40.5,32S33,28.6,33,24.5S36.4,17.1,40.5,17.1z"/>
	<path class="st1" d="M24.9,41.5c0.6-1.1,1.3-2.1,2.2-2.9c2-1.9,4.4-3.3,7.2-3.8c-0.8-0.5-1.6-1.1-2.2-1.8c-3.5,1.1-6.5,3.4-8.5,6.4
		c0.4,0.4,0.8,0.9,1,1.4L24.9,41.5z M22.8,57.1c-0.3,0-0.6-0.2-0.7-0.6v-0.4c-0.1,0-0.2-0.1-0.3-0.1l-1.2-0.6l-0.9,0.4v0.7
		c0.1,1.6,1.4,2.8,3,2.8h8.8v-0.1l-2.1-2.2H22.8z M46.6,34.8c2.7,0.6,5.1,1.9,7.1,3.9c0.9,0.9,1.7,2,2.3,3.1l0.5-1
		c0.2-0.4,0.5-0.9,0.8-1.2c-2-3.1-5-5.3-8.4-6.5C48.2,33.8,47.5,34.4,46.6,34.8z M59.1,56.1c-0.1,0-0.2,0.1-0.3,0.1v0.4
		c-0.1,0.3-0.3,0.5-0.7,0.5h-6.7l-2.1,2.2v0.1h8.8c1.6,0,2.9-1.2,3-2.8v-0.7l-0.9-0.4L59.1,56.1z"/>
</g>
</svg>
