<?xml version="1.0" encoding="utf-8"?>
<!-- Generator: Adobe Illustrator 26.0.1, SVG Export Plug-In . SVG Version: 6.00 Build 0)  -->
<svg version="1.1" id="Layer_1" xmlns="http://www.w3.org/2000/svg" xmlns:xlink="http://www.w3.org/1999/xlink" x="0px" y="0px"
	 viewBox="0 0 80 80" style="enable-background:new 0 0 80 80;" xml:space="preserve">
<style type="text/css">
	.st0{fill-rule:evenodd;clip-rule:evenodd;}
	.st1{fill-rule:evenodd;clip-rule:evenodd;fill:#FA1228;}
	.st2{fill:#FA1228;}
</style>
<g>
	<path d="M21.6,6.7c-2.4,0-4.4,2-4.4,4.4v2.6h-1.8v-2.6c0-3.4,2.7-6.1,6.1-6.1h47.3c3.4,0,6.1,2.7,6.1,6.1v35.1
		c0,3.4-2.7,6.1-6.1,6.1h-2.6v-1.8h2.6c2.4,0,4.4-2,4.4-4.4V11.1c0-2.4-2-4.4-4.4-4.4H21.6z"/>
	<path class="st0" d="M11.1,15.5c-3.4,0-6.1,2.7-6.1,6.1v35.1c0,3.4,2.7,6.1,6.1,6.1h2.6v11.4c0,0.3,0.2,0.6,0.5,0.8
		c0.3,0.1,0.7,0.1,0.9-0.1l15.4-12.1h27.9c3.4,0,6.1-2.7,6.1-6.1V21.6c0-3.4-2.7-6.1-6.1-6.1H11.1z M6.7,21.6c0-2.4,2-4.4,4.4-4.4
		h47.3c2.4,0,4.4,2,4.4,4.4v35.1c0,2.4-2,4.4-4.4,4.4H30.2c-0.2,0-0.4,0.1-0.5,0.2L15.5,72.4V61.9c0-0.5-0.4-0.9-0.9-0.9h-3.5
		c-2.4,0-4.4-2-4.4-4.4V21.6z"/>
</g>
<g>
	<path class="st1" d="M24.2,27.7c-1.9,0-3.5,1.6-3.5,3.5s1.6,3.5,3.5,3.5s3.5-1.6,3.5-3.5S26.2,27.7,24.2,27.7z M22.5,31.2
		c0-1,0.8-1.8,1.8-1.8c1,0,1.8,0.8,1.8,1.8S25.2,33,24.2,33C23.3,33,22.5,32.2,22.5,31.2z M45.3,27.7c-1.9,0-3.5,1.6-3.5,3.5
		s1.6,3.5,3.5,3.5c1.9,0,3.5-1.6,3.5-3.5S47.2,27.7,45.3,27.7z M43.5,31.2c0-1,0.8-1.8,1.8-1.8c1,0,1.8,0.8,1.8,1.8S46.2,33,45.3,33
		C44.3,33,43.5,32.2,43.5,31.2z"/>
	<path class="st2" d="M22.2,43.8c-0.3-0.3-0.9-0.3-1.2,0c-0.3,0.3-0.3,0.9,0,1.2c7.6,7.3,19.9,7.3,27.5,0c0.3-0.3,0.4-0.9,0-1.2
		c-0.3-0.3-0.9-0.4-1.2,0C40.4,50.4,29.1,50.4,22.2,43.8z"/>
</g>
</svg>
