<?xml version="1.0" encoding="utf-8"?>
<!-- Generator: Adobe Illustrator 26.0.1, SVG Export Plug-In . SVG Version: 6.00 Build 0)  -->
<svg version="1.1"
	 id="Layer_1" text-rendering="geometricPrecision" shape-rendering="geometricPrecision" image-rendering="optimizeQuality"
	 xmlns="http://www.w3.org/2000/svg" xmlns:xlink="http://www.w3.org/1999/xlink" x="0px" y="0px" viewBox="0 0 80 80"
	 style="enable-background:new 0 0 80 80;" xml:space="preserve">
<style type="text/css">
	.st0{fill:none;}
	.st1{fill:none;stroke:#00305D;stroke-linecap:round;stroke-linejoin:round;stroke-miterlimit:2.613;}
	.st2{fill:none;stroke:#0F97FF;stroke-linecap:round;stroke-linejoin:round;stroke-miterlimit:2.613;}
</style>
<rect x="28.8" y="28.8" class="st0" width="22.5" height="22.5"/>
<path class="st1" d="M40,14.9c13.9,0,25.1,11.2,25.1,25.1c0,13.9-11.2,25.1-25.1,25.1S14.9,53.9,14.9,40
	C14.9,26.1,26.1,14.9,40,14.9z"/>
<path class="st1" d="M51.8,3.2c2.1,0.7,4.1,1.5,6,2.5c0.7,0.4,1.1,1.1,0.9,1.9c-0.8,3.7,0.3,7.7,3.2,10.6c2.9,2.9,6.9,3.9,10.6,3.2
	c0.8-0.2,1.6,0.2,1.9,0.9c1,1.9,1.8,3.9,2.5,6c0.2,0.8,0,1.6-0.7,2c-3.2,2.1-5.2,5.7-5.2,9.7c0,4.1,2.1,7.7,5.2,9.7
	c0.7,0.4,1,1.3,0.7,2c-0.7,2.1-1.5,4.1-2.5,6c-0.4,0.7-1.2,1.1-1.9,0.9c-3.7-0.8-7.7,0.3-10.6,3.2c-2.9,2.9-3.9,6.9-3.2,10.6
	c0.2,0.8-0.2,1.6-0.9,1.9c-1.9,1-3.9,1.8-6,2.5c-0.8,0.2-1.6,0-2-0.7c-2.1-3.2-5.7-5.3-9.7-5.3s-7.6,2.1-9.7,5.3
	c-0.4,0.7-1.3,1-2,0.7c-2.1-0.7-4.1-1.5-6-2.5c-0.7-0.4-1.1-1.1-0.9-1.9c0.8-3.7-0.3-7.7-3.2-10.6c-2.9-2.9-6.9-3.9-10.6-3.2
	c-0.8,0.2-1.6-0.2-1.9-0.9c-1-1.9-1.8-3.9-2.5-6c-0.2-0.8,0-1.6,0.7-2C7,47.6,9.1,44.1,9.1,40c0-4.1-2.1-7.6-5.3-9.7
	c-0.7-0.4-1-1.3-0.7-2c0.7-2.1,1.5-4.1,2.5-6c0.4-0.7,1.2-1.1,1.9-0.9c3.7,0.8,7.7-0.3,10.6-3.2c2.9-2.9,3.9-6.9,3.2-10.6
	c-0.2-0.8,0.2-1.6,0.9-1.9c1.9-1,3.9-1.8,6-2.5c0.8-0.2,1.6,0,2,0.7C32.4,7,35.9,9.1,40,9.1s7.6-2.1,9.7-5.3
	C50.2,3.2,51,2.9,51.8,3.2z"/>
<path class="st2" d="M46.3,21.4c3,2,5,5.5,5,9.4c0,4.4-2.5,8.2-6.2,10.1c-0.4,0.2-0.6,0.6-0.6,1v10.1l0.2,6.7
	c-1.5,0.3-3.4,0.2-5,0.2c-1.6,0-2.9,0-4.3-0.3l0.1-6.5V41.8c0-0.4-0.2-0.8-0.6-1c-3.7-1.9-6.2-5.7-6.2-10.1c0-3.9,2-7.3,5-9.4
	c0.4-0.2,0.8-0.3,1.2-0.1c0.4,0.2,0.6,0.6,0.6,1v9.9c0,0.6,0.5,1.1,1.1,1.1h6.7c0.6,0,1.1-0.5,1.1-1.1v-9.9c0-0.4,0.2-0.8,0.6-1
	C45.5,21.1,45.9,21.1,46.3,21.4z"/>
</svg>
