<?xml version="1.0" encoding="utf-8"?>
<!-- Generator: Adobe Illustrator 26.0.1, SVG Export Plug-In . SVG Version: 6.00 Build 0)  -->
<svg version="1.1" id="Layer_1" xmlns="http://www.w3.org/2000/svg" xmlns:xlink="http://www.w3.org/1999/xlink" x="0px" y="0px"
	 viewBox="0 0 450 100" style="enable-background:new 0 0 450 100;" xml:space="preserve">
<style type="text/css">
	.st0{fill:#0093DD;}
	.st1{fill:#024266;stroke:#FFFFFF;stroke-width:2;stroke-miterlimit:10;}
	.st2{fill:#FFFFFF;}
	.st3{fill:#E20000;}
</style>
<path class="st0" d="M400,100H50C22.4,100,0,77.6,0,50l0,0C0,22.4,22.4,0,50,0h350c27.6,0,50,22.4,50,50l0,0
	C450,77.6,427.6,100,400,100z"/>
<path class="st1" d="M437.8,64.3c1-2.8,1.8-5.7,2.2-8.6l-6.3-3.4c0.1-1.8,0.1-3.7-0.1-5.6l6.2-3.5c-0.2-1.5-0.6-2.9-1-4.4
	c-0.4-1.4-0.9-2.8-1.4-4.2l-7.1,0.2c-0.8-1.7-1.8-3.3-2.9-4.8l3.6-6.1c-1.9-2.3-4.1-4.4-6.4-6.2l-6.1,3.8c-1.5-1-3.2-2-4.9-2.7v-7.1
	c-2.8-1-5.7-1.8-8.6-2.2l-3.4,6.2c-1.8-0.1-3.7-0.1-5.6,0.1l-3.5-6.2c-1.4,0.2-2.9,0.5-4.4,1c-1.4,0.4-2.9,0.9-4.2,1.4l0.2,7.1
	c-1.7,0.8-3.3,1.8-4.8,2.9l-6.1-3.6c-2.3,1.9-4.4,4.1-6.2,6.4l3.8,6.1c-1,1.5-1.9,3.2-2.7,4.9H361c-1,2.8-1.8,5.7-2.2,8.6l6.3,3.4
	c-0.1,1.8-0.1,3.7,0.1,5.6l-6.2,3.5c0.2,1.5,0.6,2.9,1,4.4c0.4,1.4,0.9,2.9,1.4,4.2l7.1-0.2c0.8,1.7,1.8,3.3,2.9,4.8l-3.6,6.2
	c1.9,2.3,4.1,4.4,6.4,6.2l6.1-3.7c1.5,1,3.2,1.9,4.9,2.7v7.1c2.8,1,5.7,1.8,8.6,2.2l3.4-6.3c1.8,0.1,3.7,0.1,5.6-0.1l3.6,6.2
	c1.4-0.2,2.9-0.6,4.3-1s2.8-0.9,4.2-1.4l-0.2-7.1c1.7-0.8,3.3-1.8,4.8-2.9l6.1,3.6c2.3-1.9,4.4-4.1,6.2-6.4l-3.7-6.1
	c1-1.5,1.9-3.2,2.7-4.9L437.8,64.3z M392,75.5c-14.1-4-22.2-18.7-18.2-32.8s18.7-22.2,32.8-18.2s22.2,18.7,18.2,32.8
	S406.1,79.5,392,75.5z"/>
<circle class="st2" cx="399.3" cy="50" r="23"/>
<g>
	<path class="st3" d="M416.6,44.4c-1,0-2,0-3,0c-1.2,0-2.4,0-3.6,0c-0.2,0-0.3,0-0.3-0.3c-0.1-1-0.3-2-0.7-2.9
		c-0.6-1.3-1.7-2.1-3-2.4c-1.3-0.3-2.6-0.3-4-0.4c-1.9,0-3.7,0-5.6,0c-1.1,0-2.1,0.1-3.1,0.5c-1.3,0.5-2.3,1.4-2.7,2.7
		c-0.3,0.9-0.5,1.8-0.7,2.7c-2.2,0-4.5,0-6.7,0c0-0.9,0.1-1.8,0.2-2.7c0.7-3.7,3-5.9,6.5-7.1c2.1-0.7,4.3-1.1,6.5-1.2
		c2.1-0.1,4.3-0.1,6.4-0.1c2.5,0.1,4.9,0.4,7.3,1.2c2.3,0.8,4.3,2.1,5.5,4.4c0.8,1.4,1.1,3,1.2,4.6c0,0.2,0,0.3,0.1,0.5
		C416.6,44.3,416.6,44.3,416.6,44.4z"/>
	<path class="st3" d="M416.6,47.7C416.6,47.8,416.6,47.8,416.6,47.7c-0.3,1.4-1,1.6-2.1,1.7c-1,0.1-2.1,0-3.1,0
		c-1.2-0.1-1.8-0.8-1.7-2.1c0.1,0,0.2,0,0.4,0c2.1,0,4.1,0,6.2,0c0.1,0,0.3,0,0.4,0C416.6,47.4,416.6,47.6,416.6,47.7z"/>
	<path class="st3" d="M395.8,46.1c2.4,0,4.8,0,7.2,0c0-0.4,0-0.8,0-1.3s0.1-0.6,0.6-0.7c0.8,0,1.5,0,2.3,0c0.3,0,0.5,0.2,0.5,0.5
		c0,0.5,0,1,0,1.4c0,0.2,0.1,0.3,0.2,0.5c2.4,2.8,4.6,5.8,6.6,8.9c0.3,0.4,0.4,0.8,0.4,1.3c0,1.7,0,3.4,0,5.1c0,0.8-0.4,1.2-1.2,1.2
		c-8.6,0-17.2,0-25.8,0c-0.8,0-1.2-0.4-1.2-1.2c0-1.7,0-3.4,0-5.1c0-0.5,0.1-0.9,0.4-1.3c1-1.4,2-2.9,3-4.3c1.2-1.6,2.5-3.1,3.7-4.7
		c0.1-0.1,0.1-0.3,0.1-0.4c0-0.5,0-1,0-1.5c0-0.3,0.1-0.5,0.4-0.5c0.8,0,1.6,0,2.4,0c0.3,0,0.4,0.2,0.4,0.5
		C395.8,45.1,395.8,45.6,395.8,46.1z M404.3,49.5c0-0.5-0.4-1-1-0.9c-0.5,0-0.9,0.5-0.9,1s0.4,0.9,1,0.9
		C403.9,50.5,404.3,50.1,404.3,49.5z M404.3,52.8c0-0.5-0.4-1-1-0.9c-0.5,0-0.9,0.4-0.9,0.9s0.4,1,0.9,1S404.3,53.4,404.3,52.8z
		 M400.3,49.6c0-0.5-0.4-1-0.9-1s-0.9,0.4-1,0.9c0,0.5,0.4,1,1,1C399.9,50.5,400.3,50.1,400.3,49.6z M399.4,55.2c-0.5,0-1,0.4-1,0.9
		s0.4,0.9,0.9,1c0.5,0,0.9-0.4,1-0.9C400.4,55.6,400,55.2,399.4,55.2z M400.3,52.8c0-0.5-0.4-0.9-0.9-1c-0.5,0-1,0.4-1,0.9
		s0.4,1,1,1C399.9,53.8,400.3,53.4,400.3,52.8z M396.4,52.8c0-0.5-0.4-0.9-0.9-0.9s-1,0.4-1,0.9s0.4,1,1,1
		C396,53.8,396.4,53.3,396.4,52.8z M403.3,55.2c-0.5,0-0.9,0.4-1,0.9c0,0.5,0.4,1,0.9,1s1-0.4,1-1C404.3,55.6,403.9,55.2,403.3,55.2
		z M395.5,50.5c0.5,0,0.9-0.4,0.9-0.9s-0.4-1-1-1c-0.5,0-0.9,0.4-0.9,0.9C394.5,50.1,394.9,50.5,395.5,50.5z M396.4,56.1
		c0-0.5-0.4-0.9-0.9-1c-0.5,0-1,0.4-1,0.9s0.4,1,1,1C396,57.1,396.4,56.6,396.4,56.1z"/>
	<path class="st3" d="M382.9,47.3c2.3,0,4.6,0,6.9,0c0.2,1.3-0.5,2.2-1.8,2.2c-1.1,0.1-2.3,0.1-3.4,0S382.9,48.6,382.9,47.3z"/>
</g>
<g>
	<path class="st2" d="M34.6,53.1h-7.4v7.6H22v-7.6h-7.4v-4.8H22v-7.6h5.2v7.6h7.4V53.1z"/>
	<path class="st2" d="M47.7,59.3c0.7,0.6,1.8,0.9,3,0.9c1.6,0,2.8-0.7,3.5-2c0.7-1.4,1.1-3.6,1.1-6.8c-0.6,0.8-1.4,1.5-2.5,2
		c-1.1,0.5-2.3,0.7-3.5,0.7c-1.7,0-3.2-0.3-4.5-1c-1.4-0.7-2.4-1.7-3.2-3.1c-0.8-1.4-1.2-3-1.2-5c0-2.9,0.9-5.2,2.6-6.9
		c1.7-1.7,4.1-2.6,7.1-2.6c3.7,0,6.4,1.2,7.9,3.6c1.5,2.4,2.3,6,2.3,10.8c0,3.4-0.3,6.2-0.9,8.4c-0.6,2.2-1.6,3.8-3,5
		c-1.4,1.1-3.4,1.7-5.8,1.7c-1.9,0-3.6-0.4-5-1.1c-1.4-0.7-2.4-1.7-3.1-3s-1.1-2.6-1.2-4h5.1C46.5,57.8,47,58.6,47.7,59.3z
		 M53.7,48.3c0.8-0.8,1.2-2,1.2-3.4c0-1.5-0.4-2.7-1.2-3.6c-0.8-0.9-1.9-1.3-3.4-1.3s-2.5,0.4-3.4,1.3c-0.8,0.9-1.2,2-1.2,3.5
		c0,1.4,0.4,2.5,1.2,3.4c0.8,0.9,2,1.3,3.6,1.3C51.8,49.5,52.9,49.1,53.7,48.3z"/>
	<path class="st2" d="M63.9,41.1V36h9.5v28.7h-5.7V41.1H63.9z"/>
	<path class="st2" d="M96,59.3c0.7,0.6,1.8,0.9,3,0.9c1.6,0,2.8-0.7,3.5-2c0.7-1.4,1.1-3.6,1.1-6.8c-0.6,0.8-1.4,1.5-2.5,2
		c-1.1,0.5-2.3,0.7-3.5,0.7c-1.7,0-3.2-0.3-4.5-1c-1.4-0.7-2.4-1.7-3.2-3.1c-0.8-1.4-1.2-3-1.2-5c0-2.9,0.9-5.2,2.6-6.9
		c1.7-1.7,4.1-2.6,7.1-2.6c3.7,0,6.4,1.2,7.9,3.6c1.5,2.4,2.3,6,2.3,10.8c0,3.4-0.3,6.2-0.9,8.4c-0.6,2.2-1.6,3.8-3,5
		c-1.4,1.1-3.4,1.7-5.8,1.7c-1.9,0-3.6-0.4-5-1.1c-1.4-0.7-2.4-1.7-3.1-3s-1.1-2.6-1.2-4h5.1C94.7,57.8,95.2,58.6,96,59.3z
		 M101.9,48.3c0.8-0.8,1.2-2,1.2-3.4c0-1.5-0.4-2.7-1.2-3.6c-0.8-0.9-1.9-1.3-3.4-1.3s-2.5,0.4-3.4,1.3c-0.8,0.9-1.2,2-1.2,3.5
		c0,1.4,0.4,2.5,1.2,3.4c0.8,0.9,2,1.3,3.6,1.3C100.1,49.5,101.1,49.1,101.9,48.3z"/>
	<path class="st2" d="M131.1,40.2l-10.5,24.5H115l10.5-23.9h-13.5v-4.7h19V40.2z"/>
	<path class="st2" d="M136.1,58.5c2.5-2.1,4.5-3.8,6-5.3c1.5-1.4,2.7-2.9,3.7-4.4c1-1.5,1.5-3,1.5-4.5c0-1.3-0.3-2.4-0.9-3.1
		s-1.6-1.1-2.9-1.1s-2.3,0.4-3,1.3c-0.7,0.9-1.1,2.1-1.1,3.6H134c0.1-3.1,1-5.5,2.8-7.2s4-2.4,6.7-2.4c3,0,5.3,0.8,6.9,2.4
		c1.6,1.6,2.4,3.7,2.4,6.3c0,2-0.6,4-1.7,5.9c-1.1,1.9-2.4,3.5-3.8,4.9c-1.4,1.4-3.3,3-5.5,5h11.6v4.6h-19.4v-4.1L136.1,58.5z"/>
	<path class="st2" d="M156.7,59.1v-4.3l12.9-18.4h6.4v17.9h3.5v4.8H176v5.6h-5.5v-5.6H156.7z M170.9,42.2l-8.1,12h8.1V42.2z"/>
	<path class="st2" d="M185.4,39.3c1.6-2.6,4.4-3.9,8.2-3.9c3.8,0,6.5,1.3,8.2,3.9c1.6,2.6,2.5,6.1,2.5,10.7c0,4.6-0.8,8.1-2.5,10.7
		c-1.6,2.6-4.4,3.9-8.2,3.9c-3.8,0-6.5-1.3-8.2-3.9c-1.6-2.6-2.5-6.2-2.5-10.7C183,45.4,183.8,41.9,185.4,39.3z M198.4,45.1
		c-0.2-1.3-0.7-2.4-1.5-3.2c-0.7-0.8-1.9-1.3-3.3-1.3c-1.5,0-2.6,0.4-3.3,1.3c-0.7,0.8-1.2,1.9-1.5,3.2c-0.2,1.3-0.4,3-0.4,4.9
		c0,2,0.1,3.7,0.4,5c0.2,1.4,0.7,2.4,1.5,3.3c0.8,0.8,1.9,1.2,3.3,1.2c1.5,0,2.6-0.4,3.3-1.2c0.8-0.8,1.3-1.9,1.5-3.3
		c0.2-1.4,0.4-3,0.4-5C198.8,48,198.7,46.4,198.4,45.1z"/>
	<path class="st2" d="M231.3,40.7c-0.6-0.6-1.6-0.8-2.8-0.8c-1.8,0-3.1,0.7-4,2.2c-0.9,1.5-1.3,3.8-1.3,7.1c0.6-1,1.5-1.9,2.8-2.5
		c1.2-0.6,2.5-0.9,3.9-0.9c1.7,0,3.2,0.4,4.5,1.1c1.3,0.7,2.3,1.8,3.1,3.2c0.7,1.4,1.1,3.1,1.1,5.1c0,1.9-0.4,3.5-1.1,5
		s-1.8,2.6-3.3,3.4c-1.4,0.8-3.2,1.2-5.2,1.2c-2.7,0-4.9-0.6-6.4-1.8c-1.6-1.2-2.7-2.9-3.3-5.1c-0.6-2.2-0.9-4.8-0.9-8
		c0-4.8,0.8-8.4,2.5-10.9c1.7-2.5,4.3-3.7,7.8-3.7c2.8,0,4.9,0.7,6.4,2.2c1.5,1.5,2.4,3.4,2.6,5.6h-5.1
		C232.4,42,231.9,41.2,231.3,40.7z M225.1,51.5c-0.9,0.8-1.4,2-1.4,3.5c0,1.5,0.4,2.8,1.3,3.7c0.9,0.9,2.1,1.3,3.7,1.3
		c1.4,0,2.5-0.4,3.4-1.3c0.8-0.9,1.2-2,1.2-3.5c0-1.5-0.4-2.7-1.2-3.6c-0.8-0.9-2-1.3-3.5-1.3C227.2,50.3,226.1,50.7,225.1,51.5z"/>
	<path class="st2" d="M242.7,59.1v-4.3l12.9-18.4h6.4v17.9h3.5v4.8H262v5.6h-5.5v-5.6H242.7z M256.8,42.2l-8.1,12h8.1V42.2z"/>
	<path class="st2" d="M270.7,58.5c2.5-2.1,4.5-3.8,6-5.3c1.5-1.4,2.7-2.9,3.7-4.4c1-1.5,1.5-3,1.5-4.5c0-1.3-0.3-2.4-0.9-3.1
		c-0.6-0.8-1.6-1.1-2.9-1.1c-1.3,0-2.3,0.4-3,1.3c-0.7,0.9-1.1,2.1-1.1,3.6h-5.4c0.1-3.1,1-5.5,2.8-7.2c1.8-1.6,4-2.4,6.8-2.4
		c3,0,5.3,0.8,6.9,2.4c1.6,1.6,2.4,3.7,2.4,6.3c0,2-0.6,4-1.7,5.9c-1.1,1.9-2.4,3.5-3.8,4.9c-1.4,1.4-3.3,3-5.5,5h11.6v4.6h-19.4
		v-4.1L270.7,58.5z"/>
	<path class="st2" d="M294,39.3c1.6-2.6,4.4-3.9,8.2-3.9c3.8,0,6.5,1.3,8.2,3.9c1.6,2.6,2.5,6.1,2.5,10.7c0,4.6-0.8,8.1-2.5,10.7
		c-1.6,2.6-4.4,3.9-8.2,3.9c-3.8,0-6.5-1.3-8.2-3.9c-1.6-2.6-2.5-6.2-2.5-10.7C291.6,45.4,292.4,41.9,294,39.3z M307,45.1
		c-0.2-1.3-0.7-2.4-1.5-3.2c-0.7-0.8-1.9-1.3-3.3-1.3c-1.5,0-2.6,0.4-3.3,1.3c-0.7,0.8-1.2,1.9-1.5,3.2c-0.2,1.3-0.4,3-0.4,4.9
		c0,2,0.1,3.7,0.4,5c0.2,1.4,0.7,2.4,1.5,3.3c0.8,0.8,1.9,1.2,3.3,1.2c1.5,0,2.6-0.4,3.3-1.2c0.8-0.8,1.3-1.9,1.5-3.3s0.4-3,0.4-5
		C307.4,48,307.3,46.4,307,45.1z"/>
	<path class="st2" d="M317.9,43.1c0-1.4,0.4-2.7,1.1-3.9c0.7-1.2,1.8-2.1,3.3-2.8s3.2-1,5.3-1c2.1,0,3.9,0.3,5.3,1s2.5,1.6,3.3,2.8
		c0.7,1.2,1.1,2.5,1.1,3.9c0,1.4-0.4,2.7-1.1,3.8c-0.7,1.1-1.7,1.9-2.8,2.5c1.4,0.6,2.6,1.5,3.4,2.8s1.2,2.6,1.2,4.3
		c0,1.8-0.5,3.3-1.4,4.7c-0.9,1.3-2.1,2.3-3.7,3.1c-1.6,0.7-3.3,1.1-5.3,1.1s-3.7-0.4-5.3-1.1c-1.6-0.7-2.8-1.7-3.7-3.1
		c-0.9-1.3-1.4-2.9-1.4-4.7c0-1.7,0.4-3.1,1.2-4.3c0.8-1.2,1.9-2.1,3.4-2.7C319.2,48.1,317.9,46,317.9,43.1z M323.9,53
		c-0.9,0.8-1.4,1.8-1.4,3.3c0,1.3,0.5,2.4,1.4,3.2c0.9,0.8,2.1,1.2,3.7,1.2c1.5,0,2.8-0.4,3.7-1.3c0.9-0.8,1.3-1.9,1.3-3.2
		c0-1.4-0.5-2.5-1.4-3.2c-0.9-0.8-2.1-1.2-3.6-1.2C326,51.9,324.8,52.3,323.9,53z M330.7,40.9c-0.8-0.7-1.8-1.1-3.2-1.1
		c-1.3,0-2.4,0.4-3.1,1.1c-0.8,0.7-1.2,1.7-1.2,3c0,1.2,0.4,2.1,1.2,2.8c0.8,0.7,1.8,1.1,3.1,1.1s2.3-0.4,3.1-1.1
		c0.8-0.7,1.2-1.7,1.2-2.9C331.9,42.7,331.5,41.7,330.7,40.9z"/>
</g>
</svg>
