<?xml version="1.0" encoding="utf-8"?>
<!-- Generator: Adobe Illustrator 26.0.1, SVG Export Plug-In . SVG Version: 6.00 Build 0)  -->
<svg version="1.1" id="Layer_1" xmlns="http://www.w3.org/2000/svg" xmlns:xlink="http://www.w3.org/1999/xlink" x="0px" y="0px"
	 viewBox="0 0 500 304" style="enable-background:new 0 0 500 304;" xml:space="preserve">
<style type="text/css">
	.st0{fill:#E21F26;}
</style>
<path class="st0" d="M340.97,14.26c19.09,0.23,35.93,2.6,51.22,11.58c21.24,12.48,28.84,33.82,26.53,55.71
	c-2.78,26.35-14.87,48.82-30.22,69.72c-26.07,35.5-59.22,63.27-96.11,86.81c-29.53,18.85-60.88,33.94-94.4,44.29
	c-21.25,6.56-42.94,10.89-65.28,10.66c-16.69-0.17-32.94-2.72-47.6-11.46c-16.87-10.06-25.66-25.11-26.76-44.55
	c-1.2-21.09,5.89-40.08,15.84-58.17c15.53-28.23,36.88-51.67,61.05-72.62C173.54,73,216.47,47.47,264.16,30.05
	c19.65-7.18,39.81-12.31,60.59-14.75C330.7,14.6,336.72,14.52,340.97,14.26z M390.52,71.44c-1.57-11.37-6.17-20.44-14.48-27.49
	c-12.4-10.52-27.47-13.37-42.98-13.62c-23.28-0.37-45.6,5.16-67.21,13.43c-48.47,18.55-90.52,46.9-126.58,84.1
	c-18.39,18.97-34.23,39.84-44.78,64.3c-5.62,13.01-9.2,26.5-8.13,40.85c0.85,11.29,4.89,21.25,13.33,29.02
	c12.3,11.33,27.55,14.33,43.58,14.78c0.73,0.02,2.01-1.46,2.2-2.41c2.57-13.28,4.93-26.59,7.46-39.87
	c5.01-26.34,10.14-52.65,15.13-79c3.32-17.54,10.17-33.48,21.96-46.94c21.9-25.01,49.85-37,82.92-37.13
	c37.68-0.14,75.36-0.03,113.04-0.03C387.27,71.44,388.57,71.44,390.52,71.44z M323.42,176.39c-12.82,0-25.17,0.11-37.52-0.08
	c-2.97-0.04-3.86,1.02-4.31,3.75c-2.51,15.25-5.21,30.47-7.82,45.7c-0.34,2.01-0.55,4.04-0.9,6.68c1.41-0.82,2.16-1.17,2.81-1.65
	c13.05-9.75,26.65-18.87,39.03-29.42c30.45-25.95,56.13-55.76,71.3-93.46c0.61-1.51,1.16-3.04,1.95-5.12c-2.13,0-3.65,0-5.18,0
	c-44.52,0-89.05,0.3-133.57-0.2c-11.55-0.13-21.24,9.55-23.66,17.63c-2.4,8.02-4.74,16.06-6.97,24.13
	c-1.13,4.07-1.97,8.23-2.95,12.34c0.29,0.17,0.59,0.33,0.88,0.5c0.9-0.69,1.81-1.37,2.69-2.08c8.08-6.41,17.33-9.66,27.6-9.7
	c25.68-0.09,51.37-0.04,77.05-0.03c4.19,0,5.19,0.79,4.53,4.85C326.97,158.85,325.15,167.4,323.42,176.39z M195.07,268.98
	c1.93-0.53,3.21-0.77,4.41-1.24c12.4-4.78,24.75-9.67,37.2-14.32c2.55-0.95,3.42-2.45,3.83-4.93c2.96-17.59,6.04-35.16,9.04-52.74
	c1.08-6.3,2.06-12.62,3.16-19.38c-7.66,0-14.71,0-21.77,0c-10.24,0-21.79,9.53-23.59,19.61c-2.67,14.97-5.27,29.94-7.81,44.93
	C198.01,249.99,196.64,259.08,195.07,268.98z"/>
</svg>
