<?xml version="1.0" encoding="utf-8"?>
<!-- Generator: Adobe Illustrator 26.0.1, SVG Export Plug-In . SVG Version: 6.00 Build 0)  -->
<svg version="1.1" id="Layer_1" xmlns="http://www.w3.org/2000/svg" xmlns:xlink="http://www.w3.org/1999/xlink" x="0px" y="0px"
	 viewBox="0 0 60 60" style="enable-background:new 0 0 60 60;" xml:space="preserve">
<style type="text/css">
	.lgd-01{fill:none;stroke:#FAA21F;stroke-width:2;stroke-miterlimit:10;stroke-dasharray:2;}
	.lgd-02{fill:none;stroke:#FAA21F;stroke-width:2;stroke-miterlimit:10;stroke-dasharray:2.0014,2.0014;}
	.lgd-03{fill:#232323;}
	.lgd-04{fill:#FFEBCE;}
	.lgd-05{fill:#666766;}
	.lgd-06{fill:#DB4231;}
	.lgd-07{fill:#FAA21F;}
	.lgd-rotate-dot{
		animation: lgd-rotate 10s linear infinite;
		transform-origin: center;
		transform-box: fill-box;
	}
	@keyframes lgd-rotate{
		from{
			transform: rotate(0deg);
		}
		to{
			transform: rotate(360deg);
		}
	}
</style>
<g>
	<line class="lgd-01" x1="3.9" y1="4.8" x2="55.1" y2="4.8"/>
	<g>
		<path class="lgd-02 lgd-rotate-dot" d="M55.3,31.3c-0.7,14.1-12.6,24.9-26.7,24.2c-33.7-3-31.4-51.2,2.4-50.9C45.1,5.3,56,17.3,55.3,31.3L55.3,31.3z
			"/>
	</g>
	<path class="lgd-03" d="M30,11.4c-10.4,0-18.8,8.4-18.8,18.8S19.7,49,30,49c10.4,0,18.8-8.5,18.8-18.8C48.8,19.7,40.4,11.4,30,11.4z"
		/>
	<path class="lgd-04" d="M17.9,36.1L30,43.8l12.1-7.7V24.3H17.9V36.1z"/>
	<path class="lgd-05" d="M21.6,34v-6h16.8v6L30,39.4L21.6,34z"/>
	<path class="lgd-04" d="M30,16.6l-12.1,7.7L30,32.1l12.1-7.7L30,16.6z"/>
	<path class="lgd-06" d="M24.8,24.3L30,21l5.2,3.4L30,27.7L24.8,24.3z"/>
	<path class="lgd-03" d="M30,32.1v11.7 M30,1.3c-2,0-3.5,1.6-3.5,3.5S28,8.4,30,8.4s3.5-1.6,3.5-3.5S32,1.3,30,1.3z M30,51.6
		c-2,0-3.5,1.6-3.5,3.5s1.6,3.5,3.5,3.5s3.5-1.6,3.5-3.5S32,51.6,30,51.6z M58.7,30c0-2-1.6-3.5-3.5-3.5S51.6,28,51.6,30
		s1.6,3.5,3.5,3.5S58.7,32,58.7,30z M8.4,30c0-2-1.6-3.5-3.5-3.5S1.3,28,1.3,30s1.6,3.5,3.5,3.5S8.4,32,8.4,30z M58.7,4.8
		c0-2-1.6-3.5-3.5-3.5s-3.5,1.6-3.5,3.5s1.6,3.5,3.5,3.5S58.7,6.8,58.7,4.8z M8.4,4.8c0-2-1.6-3.5-3.5-3.5S1.3,2.9,1.3,4.8
		s1.6,3.5,3.5,3.5S8.4,6.8,8.4,4.8z"/>
	<path class="lgd-07" d="M42.7,23.5l-12.1-7.7c-0.3-0.2-0.7-0.2-1,0l-12.1,7.7C17.2,23.7,17,24,17,24.2V36c0,0.3,0.2,0.7,0.5,0.7
		l12.1,7.7c0.2,0.1,0.4,0.2,0.5,0.2c0.2,0,0.4-0.1,0.5-0.2l12.1-7.7c0.3-0.2,0.5-0.5,0.5-0.7V24.3C43,23.9,43,23.7,42.7,23.5z
		 M30,17.7l10.4,6.6L30,30.9l-10.4-6.6L30,17.7z M18.8,26l10.3,6.5v9.6l-10.3-6.5V26z M30.9,42.1v-9.5l10.3-6.5v9.5L30.9,42.1z
		 M30,9.3c2.4,0,4.5-2,4.5-4.5S32.4,0.4,30,0.4s-4.5,2-4.5,4.5S27.6,9.3,30,9.3z M30,2.2c1.4,0,2.6,1.2,2.6,2.6S31.4,7.4,30,7.4
		s-2.6-1.2-2.6-2.6S28.6,2.2,30,2.2z M30,50.7c-2.4,0-4.5,2-4.5,4.5c0,2.4,2,4.5,4.5,4.5c2.4,0,4.5-2,4.5-4.5S32.4,50.7,30,50.7z
		 M30,57.8c-1.4,0-2.6-1.2-2.6-2.6s1.2-2.6,2.6-2.6s2.6,1.2,2.6,2.6S31.4,57.8,30,57.8z M55.2,25.5c-2.4,0-4.5,2-4.5,4.5
		c0,2.4,2,4.5,4.5,4.5c2.4,0,4.5-2,4.5-4.5C59.6,27.6,57.7,25.5,55.2,25.5z M55.2,32.6c-1.4,0-2.6-1.2-2.6-2.6s1.2-2.6,2.6-2.6
		s2.6,1.2,2.6,2.6S56.6,32.6,55.2,32.6z M4.8,25.5c-2.4,0-4.5,2-4.5,4.5c0,2.4,2,4.5,4.5,4.5c2.4,0,4.5-2,4.5-4.5
		C9.3,27.6,7.3,25.5,4.8,25.5z M4.8,32.6c-1.4,0-2.6-1.2-2.6-2.6s1.2-2.6,2.6-2.6s2.6,1.2,2.6,2.6S6.2,32.6,4.8,32.6z M55.2,9.3
		c2.4,0,4.5-2,4.5-4.5s-2-4.5-4.5-4.5c-2.4,0-4.5,2-4.5,4.5S52.7,9.3,55.2,9.3z M55.2,2.2c1.4,0,2.6,1.2,2.6,2.6s-1.2,2.6-2.6,2.6
		s-2.6-1.2-2.6-2.6S53.8,2.2,55.2,2.2z M4.8,0.4c-2.5,0-4.5,2-4.5,4.5s2,4.5,4.5,4.5c2.4,0,4.5-2,4.5-4.5S7.3,0.4,4.8,0.4z M4.8,7.4
		c-1.4,0-2.6-1.2-2.6-2.6s1.2-2.6,2.6-2.6s2.6,1.2,2.6,2.6S6.2,7.4,4.8,7.4z"/>
</g>
</svg>
