<?xml version="1.0" encoding="utf-8"?>
<!-- Generator: Adobe Illustrator 26.0.1, SVG Export Plug-In . SVG Version: 6.00 Build 0)  -->
<svg version="1.1" id="Layer_1" xmlns="http://www.w3.org/2000/svg" xmlns:xlink="http://www.w3.org/1999/xlink" x="0px" y="0px"
	 viewBox="0 0 80 80" style="enable-background:new 0 0 80 80;" xml:space="preserve">
<path d="M16.5,33.3c-0.6,0.6-1.4,0.9-2.2,0.9c3.2,4.4,9.3,5.3,13.7,2.2c0.8-0.6,1.6-1.3,2.2-2.2c-0.8,0-1.6-0.4-2.2-0.9
	c-2.7,3.2-7.4,3.5-10.6,0.9C17,33.9,16.7,33.6,16.5,33.3L16.5,33.3z M52.1,33.3c-0.6,0.6-1.4,0.9-2.2,0.9c3.2,4.4,9.3,5.3,13.7,2.2
	c0.8-0.6,1.6-1.3,2.2-2.2c-0.8,0-1.6-0.4-2.2-0.9c-2.7,3.2-7.4,3.5-10.6,0.9C52.6,33.9,52.4,33.6,52.1,33.3L52.1,33.3z M14,39.5
	l-1.8,1.7c-0.3,0.2-0.8,0.2-1.1-0.1l-1.4-1.4c-0.2-0.2-0.3-0.4-0.3-0.6c0-0.1,0-0.2,0.1-0.3l1.8-1.7c0.4-0.4,0.5-1,0.2-1.5
	c-0.8-1.2-1.4-2.5-1.7-4c-0.1-0.5-0.6-0.9-1.1-0.9H6.2c-0.4,0-0.7-0.4-0.6-0.8v-1.9c0-0.4,0.2-0.7,0.6-0.8h2c0.6,0,1.1-0.5,1.1-1.1
	s-0.5-1.1-1.1-1.1h-2c-1.7,0-3,1.4-2.9,3.1V30c0,1.7,1.3,3,2.9,3.1h1.7c0.3,1.1,0.7,2.1,1.3,3L8,37.2c-0.5,0.5-0.8,1.2-0.8,2
	c0,0.9,0.4,1.7,1,2.2l1.4,1.4c1.2,1.2,3,1.2,4.3,0.1l1.2-1.1c0.1,0.1,0.3,0.1,0.4,0.2c0.4-0.7,0.9-1.3,1.5-1.9
	c-0.5-0.2-1-0.5-1.4-0.8C14.9,39.1,14.4,39.2,14,39.5z M73.8,25.1h-2c-0.6,0-1.1,0.5-1.1,1.1s0.5,1.1,1.1,1.1h2
	c0.4,0,0.7,0.4,0.6,0.8V30c0,0.4-0.2,0.7-0.6,0.8h-2.5c-0.5,0-1,0.4-1.1,0.9c-0.3,1.4-0.9,2.8-1.7,4c-0.3,0.5-0.2,1.1,0.2,1.5
	l1.8,1.7c0.1,0.1,0.1,0.2,0.1,0.3c0,0.2-0.1,0.4-0.3,0.6l-1.4,1.3c-0.3,0.3-0.7,0.4-1.1,0.1L66,39.5c-0.4-0.4-1-0.4-1.4-0.2
	c-0.5,0.3-0.9,0.5-1.4,0.8c0.6,0.5,1.1,1.1,1.5,1.9c0.1-0.1,0.3-0.1,0.4-0.2l1.2,1.1c1.2,1.1,3.1,1,4.3-0.1l1.4-1.4
	c0.6-0.6,1-1.4,1-2.2c0-0.7-0.3-1.5-0.8-2l-1.1-1.1c0.5-1,1-2,1.3-3h1.7c1.7,0,3-1.4,2.9-3.1v-1.9C76.8,26.5,75.5,25.1,73.8,25.1z
	 M59.7,41.1h-2.4c-0.6,0-1.1,0.5-1.1,1.1s0.5,1.1,1.1,1.1h2.4c0.6,0.1,1.1,0.6,1,1.3v2.4c0.1,0.6-0.4,1.2-1,1.3h-3.1
	c-0.5,0-1,0.4-1.1,0.9c-0.4,1.8-1.1,3.5-2.1,5.1c-0.3,0.5-0.2,1.1,0.2,1.4l2.2,2.2c0.2,0.2,0.2,0.4,0.2,0.6c0,0.4-0.2,0.7-0.4,1
	l-1.7,1.7c-0.4,0.5-1.1,0.6-1.6,0.2L50,59.3c-0.4-0.4-1-0.4-1.4-0.2c-1.6,1-3.3,1.7-5.1,2.1c-0.5,0.1-0.9,0.6-0.9,1.1v3.1
	c-0.1,0.6-0.7,1.1-1.3,1h-2.4c-0.6,0.1-1.2-0.4-1.3-1v-3.1c0-0.5-0.4-1-0.9-1.1c-1.8-0.4-3.6-1.1-5.1-2.1c-0.5-0.3-1-0.2-1.4,0.2
	l-2.2,2.2c-0.5,0.4-1.2,0.3-1.6-0.2l-1.7-1.7c-0.3-0.3-0.4-0.6-0.4-1c0-0.2,0.1-0.5,0.2-0.6l2.2-2.2c0.4-0.4,0.5-1,0.2-1.4
	c-1-1.6-1.7-3.3-2.1-5.1c-0.1-0.5-0.6-0.9-1.1-0.9h-3.1c-0.6-0.1-1.1-0.6-1-1.3v-2.4c-0.1-0.6,0.4-1.2,1-1.3h2.4
	c0.6,0,1.1-0.5,1.1-1.1s-0.5-1.1-1.1-1.1h-2.4c-1.9,0.1-3.4,1.7-3.3,3.6v2.4c-0.1,1.9,1.4,3.5,3.3,3.6h2.2c0.4,1.4,1,2.8,1.7,4.1
	l-1.5,1.5c-0.6,0.6-0.9,1.4-0.9,2.2c0,1,0.4,1.9,1.1,2.6l1.7,1.7c1.3,1.4,3.5,1.5,4.9,0.2l1.6-1.5c1.3,0.7,2.7,1.3,4.2,1.7v2.2
	c0.1,1.9,1.7,3.4,3.6,3.3h2.4c1.9,0.1,3.5-1.4,3.6-3.3v-2.2c1.5-0.4,2.9-1,4.2-1.7l1.6,1.5c1.4,1.3,3.6,1.2,4.9-0.2l1.7-1.7
	c0.7-0.7,1.1-1.6,1.1-2.6c0-0.8-0.3-1.7-0.9-2.2l-1.5-1.5c0.7-1.3,1.3-2.7,1.7-4.1h2.2c1.9-0.1,3.4-1.7,3.3-3.6v-2.4
	C63,42.8,61.6,41.2,59.7,41.1z"/>
<path d="M32.3,51.4c-0.6,0.4-1.3,0.7-2,0.7c-0.1,0-0.2,0-0.3,0c4,5.6,11.8,6.9,17.3,2.9c1.1-0.8,2.1-1.8,2.9-2.9c-0.1,0-0.2,0-0.3,0
	c-0.7,0-1.5-0.2-2-0.7c-3.7,4.3-10.1,4.8-14.3,1.1C33,52.1,32.6,51.8,32.3,51.4L32.3,51.4z M29.1,41.7v6.9c0,0.6,0.5,1.1,1.1,1.1
	c0.6,0,1.1-0.5,1.1-1.1v-6.9c0-2.3,2.1-4.3,4.5-4.5c-0.8-0.5-1.5-1.1-2.1-1.8C31.1,36.3,29.1,38.9,29.1,41.7z M48.6,41.7v6.9
	c0,0.6,0.5,1.1,1.1,1.1s1.1-0.5,1.1-1.1v-6.9c0-2.8-2-5.3-4.7-6.4c-0.6,0.7-1.3,1.4-2.1,1.8C46.5,37.4,48.6,39.4,48.6,41.7z
	 M37.4,37.8l-0.8,5.7c-0.1,0.6,0.1,1.2,0.5,1.7l1.5,1.6c0.4,0.4,0.9,0.6,1.4,0.6h0c0.5,0,1.1-0.2,1.4-0.6l1.4-1.5
	c0.4-0.5,0.6-1.1,0.5-1.7l-0.8-5.8c-0.7,0.3-1.5,0.4-2.3,0.4l0.8,5.6L40,45l-1.2-1.3l0.8-5.5C38.9,38.2,38.1,38.1,37.4,37.8z M40,36
	c3.2,0,5.7-2.6,5.7-5.7s-2.6-5.7-5.7-5.7c-3.2,0-5.7,2.6-5.7,5.7C34.3,33.4,36.8,36,40,36C40,36,40,36,40,36z M40,26.8
	c1.9,0,3.4,1.5,3.4,3.4s-1.5,3.4-3.4,3.4c-1.9,0-3.4-1.5-3.4-3.4C36.6,28.3,38.1,26.8,40,26.8z M19.4,23.4l-0.6,4.1
	c-0.1,0.6,0.1,1.2,0.5,1.7l1.5,1.6c0.4,0.4,0.9,0.6,1.4,0.6h0c0.5,0,1.1-0.2,1.4-0.6l1.4-1.5c0.4-0.5,0.6-1.1,0.5-1.7L25,23.3
	c-0.7,0.3-1.5,0.5-2.2,0.5l0.5,3.9l-1.1,1.2l-1.2-1.3l0.6-3.8C20.8,23.8,20.1,23.6,19.4,23.4z M14.1,32c0.6,0,1.1-0.5,1.1-1.1v-5.1
	c0.1-1.5,1.1-2.8,2.5-3.3c-0.7-0.5-1.2-1.1-1.7-1.7c-1.8,1-3,2.9-3.1,5v5.1C13,31.4,13.5,32,14.1,32z M29.1,25.7v5.1
	c0,0.6,0.5,1.1,1.1,1.1c0.6,0,1.1-0.5,1.1-1.1v-5.1c-0.1-2.1-1.2-4-3.1-5c-0.5,0.7-1,1.2-1.7,1.7C28,23,29,24.2,29.1,25.7z
	 M22.2,21.6c2.9,0,5.2-2.3,5.2-5.2s-2.3-5.2-5.2-5.2S17,13.6,17,16.4C17,19.3,19.3,21.6,22.2,21.6C22.2,21.6,22.2,21.6,22.2,21.6z
	 M22.2,13.6c1.6,0,2.9,1.3,2.9,2.9s-1.3,2.9-2.9,2.9c-1.6,0-2.9-1.3-2.9-2.9C19.3,14.9,20.6,13.6,22.2,13.6z M55,23.4l-0.6,4.1
	c-0.1,0.6,0.1,1.2,0.5,1.7l1.5,1.6c0.4,0.4,0.9,0.6,1.4,0.6h0c0.5,0,1.1-0.2,1.4-0.6l1.4-1.5c0.4-0.5,0.6-1.1,0.5-1.7l-0.6-4.2
	c-0.7,0.3-1.5,0.5-2.2,0.5l0.5,3.9l-1.1,1.2l-1.2-1.3l0.6-3.8C56.5,23.8,55.7,23.6,55,23.4z M49.8,32c0.6,0,1.1-0.5,1.1-1.1v-5.1
	c0.1-1.5,1.1-2.8,2.5-3.3c-0.7-0.5-1.2-1.1-1.7-1.7c-1.8,1-3,2.9-3.1,5v5.1C48.6,31.4,49.1,32,49.8,32z M64.7,25.7v5.1
	c0,0.6,0.5,1.1,1.1,1.1c0.6,0,1.1-0.5,1.1-1.1v-5.1c-0.1-2.1-1.2-4-3.1-5c-0.5,0.7-1,1.2-1.7,1.7C63.6,23,64.6,24.2,64.7,25.7z
	 M57.8,21.6c2.9,0,5.2-2.3,5.2-5.2s-2.3-5.2-5.2-5.2s-5.2,2.3-5.2,5.2C52.6,19.3,55,21.6,57.8,21.6C57.8,21.6,57.8,21.6,57.8,21.6z
	 M57.8,13.6c1.6,0,2.9,1.3,2.9,2.9s-1.3,2.9-2.9,2.9s-2.9-1.3-2.9-2.9C54.9,14.9,56.2,13.6,57.8,13.6z"/>
</svg>
