<?xml version="1.0" encoding="utf-8"?>
<!-- Generator: Adobe Illustrator 26.0.1, SVG Export Plug-In . SVG Version: 6.00 Build 0)  -->
<svg version="1.1" id="Layer_1" xmlns="http://www.w3.org/2000/svg" xmlns:xlink="http://www.w3.org/1999/xlink" x="0px" y="0px"
	 viewBox="0 0 60 60" style="enable-background:new 0 0 60 60;" xml:space="preserve">
<style type="text/css">
	.vd-01{fill:none;stroke:#FAA21F;stroke-width:2;stroke-miterlimit:10;stroke-dasharray:2.0014,2.0014;}
	.vd-02{fill:#232323;}
	.vd-03{fill:#FAA21F;}
	.vd-04{fill:#FFEBCE;}
	.rotate-dot{
		animation: rotate 10s linear infinite;
		transform-origin: center;
		transform-box: fill-box;
	}
	@keyframes rotate{
		from{
			transform: rotate(0deg);
		}
		to{
			transform: rotate(360deg);
		}
	}
</style>
<g>
	<g class="rotate-dot">
		<path class="vd-01" d="M53.2,27.7C52.5,40.3,41.9,50,29.3,49.3C-0.8,46.7,1.2,3.6,31.4,3.8C44,4.5,53.8,15.2,53.2,27.7L53.2,27.7z"
			/>
	</g>
	<path class="vd-02" d="M13.3,28.3h34.1v30.1H13.3V28.3z"/>
	<g>
		<path class="vd-02" d="M51,24.4h4.4v4.4H51V24.4z M51,1.6h4.4V6H51V1.6z M5.3,1.6h4.4V6H5.3V1.6z M28.1,1.6h4.4V6h-4.4V1.6z"/>
		<path class="vd-03" d="M50.2,0.7v2.2H33.3V0.7h-6v2.2H10.5V0.7h-6v6h6V4.6h16.8v2.2h6V4.6h16.8v2.2h6v-6C56.2,0.7,50.2,0.7,50.2,0.7
			z M8.8,5.1H6.1V2.4h2.8L8.8,5.1L8.8,5.1z M31.7,5.1h-2.8V2.4h2.8V5.1z M54.5,5.1h-2.8V2.4h2.8V5.1z"/>
	</g>
	<path class="vd-02" d="M5.3,24.4h4.4v4.4H5.3V24.4z"/>
	<path class="vd-03" d="M12.5,59.2h35.6V27.5H12.5V59.2z M14.1,29.2h32.4v28.5H14.1V29.2z M50.2,23.6v6h6v-6H50.2z M54.5,28h-2.8v-2.8
		h2.8V28z M4.5,29.6h6v-6h-6V29.6z M6.1,25.2h2.8V28H6.1V25.2z"/>
	<g class="rotate-dot">
		<path class="vd-04" d="M36.6,42.1c0.8,4.5-3,8.4-7.5,7.5c-2.6-0.5-4.6-2.5-5-5c-0.8-4.5,3-8.4,7.5-7.5
			C34.1,37.6,36.1,39.6,36.6,42.1z"/>
		<polygon class="vd-02" points="27.8,39.8 27.8,47 34.2,43.3 		"/>
	</g>
</g>
</svg>
