<?xml version="1.0" encoding="utf-8"?>
<!-- Generator: Adobe Illustrator 26.0.1, SVG Export Plug-In . SVG Version: 6.00 Build 0)  -->
<svg version="1.1" id="Layer_1" xmlns="http://www.w3.org/2000/svg" xmlns:xlink="http://www.w3.org/1999/xlink" x="0px" y="0px"
	 viewBox="0 0 60 60" style="enable-background:new 0 0 60 60;" xml:space="preserve">
<style type="text/css">
	.wd-rotate-dot{
		animation: wd-rotate 10s linear infinite;
		transform-origin: center;
		transform-box: fill-box;
	}
	@keyframes wd-rotate{
		from{
			transform: rotate(0deg);
		}
		to{
			transform: rotate(360deg);
		}
	}
	.wb-01{fill:#232323;stroke:#FAA21F;stroke-linecap:round;stroke-linejoin:round;}
	.wb-02{fill:none;stroke:#FAA21F;stroke-linecap:round;stroke-linejoin:round;}
	.wb-03{fill:#FFEBCE;stroke:#FAA21F;stroke-linecap:round;stroke-linejoin:round;}
	.wb-04{fill:#010101;}
	.wb-05{font-family:'Calibri-Bold';}
	.wb-06{font-size:9.2362px;}
</style>
<g>
	<g>
		<path class="wb-01" d="M43.3,50.7h14.8c0.5,0,0.8,0.4,0.8,0.8V58c0,0.5-0.4,0.8-0.8,0.8H43.3c-0.5,0-0.8-0.4-0.8-0.8v-6.5
			C42.4,51.1,42.8,50.7,43.3,50.7z"/>
		<path class="wb-01" d="M22.6,46h14.8c0.5,0,0.8,0.4,0.8,0.8v6.5c0,0.5-0.4,0.8-0.8,0.8H22.6c-0.5,0-0.8-0.4-0.8-0.8v-6.5
			C21.7,46.4,22.1,46,22.6,46z"/>
		<path class="wb-01" d="M1.9,50.7h14.8c0.5,0,0.8,0.4,0.8,0.8V58c0,0.5-0.4,0.8-0.8,0.8H1.9c-0.5,0-0.8-0.4-0.8-0.8v-6.5
			C1.1,51.1,1.4,50.7,1.9,50.7z"/>
		<g>
			<line class="wb-02" x1="30" y1="33" x2="30" y2="46"/>
			<path class="wb-02" d="M50.7,50.7v-6.6c0-1.6-1.3-2.8-2.8-2.8H12.1c-1.6,0-2.8,1.3-2.8,2.8v6.6"/>
		</g>
	</g>
	<g class="wd-rotate-dot">
		<path class="wb-01" d="M44,24.4c-0.2,0.7-0.5,1.4-0.9,2.1c-0.2,0.3-0.2,0.7,0,1l1.7,2.7c0.3,0.4,0.2,1-0.2,1.3l-3,3
			c-0.3,0.3-0.9,0.4-1.3,0.2L37.7,33c-0.3-0.2-0.7-0.2-1,0c-0.7,0.3-1.4,0.6-2.1,0.9c-0.4,0.1-0.6,0.4-0.7,0.8l-0.7,3.1
			c-0.1,0.5-0.5,0.8-1,0.8H28c-0.5,0-0.9-0.3-1-0.8l-0.7-3.1c-0.1-0.4-0.4-0.6-0.7-0.8c-0.7-0.2-1.4-0.5-2.1-0.9
			c-0.3-0.2-0.7-0.2-1,0l-2.7,1.7c-0.4,0.3-1,0.2-1.3-0.2l-3-3c-0.3-0.3-0.4-0.9-0.2-1.3l1.7-2.7c0.2-0.3,0.2-0.7,0-1
			c-0.3-0.7-0.6-1.4-0.9-2.1c-0.1-0.4-0.4-0.6-0.8-0.7L12.2,23c-0.5-0.1-0.8-0.5-0.8-1v-4.2c0-0.5,0.3-0.9,0.8-1l3.1-0.7
			c0.4-0.1,0.6-0.4,0.8-0.7c0.2-0.7,0.5-1.4,0.9-2.1c0.2-0.3,0.2-0.7,0-1l-1.7-2.7c-0.3-0.4-0.2-1,0.2-1.3l3-3
			c0.3-0.3,0.9-0.4,1.3-0.2l2.7,1.7c0.3,0.2,0.7,0.2,1,0c0.5-0.5,1.2-0.8,1.9-1C25.8,5.6,26,5.4,26.1,5l0.7-3.1
			c0.1-0.5,0.5-0.8,1-0.8H32c0.5,0,0.9,0.3,1,0.8L33.9,5c0.1,0.4,0.4,0.6,0.7,0.8C35.3,6,36,6.3,36.7,6.6c0.3,0.2,0.7,0.2,1,0
			l2.7-1.7c0.4-0.3,1-0.2,1.3,0.2l3,3C45,8.4,45.1,9,44.9,9.4l-1.7,2.7c-0.2,0.3-0.2,0.7,0,1c0.3,0.7,0.6,1.4,0.9,2.1
			c0.1,0.4,0.4,0.6,0.8,0.7l3.1,0.7c0.5,0.1,0.8,0.5,0.8,1v4.2c0,0.5-0.3,0.9-0.8,1l-3.1,0.7C44.4,23.7,44.1,24,44,24.4L44,24.4z"/>
		<path class="wb-03" d="M41.2,19.8C41.2,26,36.2,31,30,31s-11.2-5-11.2-11.2S23.8,8.6,30,8.6S41.2,13.6,41.2,19.8z"/>
	</g>
	<text transform="matrix(1 0 0 1 23.4105 22.4662)" class="wb-04 wb-05 wb-06">&lt;/&gt;</text>
</g>
</svg>
