<?xml version="1.0" encoding="utf-8"?>
<svg version="1.1" id="Layer_1" xmlns="http://www.w3.org/2000/svg" xmlns:xlink="http://www.w3.org/1999/xlink" x="0px"
	y="0px" viewBox="0 0 1200 1200" style="enable-background:new 0 0 1200 1200;" xml:space="preserve">
	<style type="text/css">
		.main0 {
			fill: none;
			stroke: #FFFFFF;
			stroke-width: 40;
			stroke-miterlimit: 10;
			stroke-dasharray: 1.003755e-02, 12.0475, 7.0263, 0, 0, 0;
		}

		.main1 {
			fill: none;
			stroke: #FFFFFF;
			stroke-width: 5.4188;
			stroke-miterlimit: 10;
		}

		.main2 {
			fill: #808080;
		}

		.main3 {
			fill: #FFD45B;
		}

		.main4 {
			fill: #C7B299;
		}

		.main5 {
			fill: #FFFFFF;
		}

		.main6 {
			fill: #FFFFFF;
			stroke: #000000;
			stroke-width: 4.4224;
			stroke-linejoin: round;
			stroke-miterlimit: 10;
		}

		.main7 {
			fill: none;
			stroke: #000000;
			stroke-width: 4.4224;
			stroke-miterlimit: 10;
		}

		.main8 {
			fill: #F59121;
			stroke: #000000;
			stroke-width: 4.4224;
			stroke-linecap: round;
			stroke-miterlimit: 4;
		}

		.main9 {
			fill: #F59121;
		}

		.main10 {
			fill: none;
			stroke: #000000;
			stroke-width: 4.4224;
			stroke-linecap: round;
		}

		.main11 {
			fill: #231F20;
			stroke: #000000;
			stroke-width: 4.4224;
			stroke-miterlimit: 10;
		}

		.main12 {
			fill: none;
			stroke: #000000;
			stroke-width: 4.4224;
			stroke-miterlimit: 6;
			stroke-dasharray: 8.8448, 2.9482;
		}

		.main13 {
			fill: #FFFFFF;
			stroke: #000000;
			stroke-width: 4.4224;
			stroke-miterlimit: 10;
		}

		.main14 {
			fill: #F59121;
			stroke: #000000;
			stroke-width: 4.4224;
			stroke-miterlimit: 10;
		}

		.main15 {
			fill: #FFFFFF;
			stroke: #FFFFFF;
			stroke-width: 4.4224;
			stroke-miterlimit: 10;
		}

		.main16 {
			fill: none;
			stroke: #000000;
			stroke-width: 4.4224;
			stroke-miterlimit: 6;
			stroke-dasharray: 8.8448, 5;
		}

		.main17 {
			fill: #FFFFFF;
			stroke: #000000;
			stroke-width: 4.4224;
		}

		.main18 {
			fill: #F59121;
			stroke: #000000;
			stroke-width: 4.4224;
		}

		.main19 {
			fill: none;
			stroke: #000000;
			stroke-width: 4.4224;
		}

		.main20 {
			fill: #FFFFFF;
			stroke: #000000;
			stroke-width: 2.9482;
			stroke-miterlimit: 10;
		}

		.main21 {
			fill: none;
			stroke: #000000;
			stroke-width: 2.9482;
			stroke-miterlimit: 10;
		}

		.main22 {
			fill: #F9A729;
		}

		.main23 {
			fill: #FFFFFF;
			stroke: #000000;
			stroke-width: 4.4224;
			stroke-linecap: square;
			stroke-linejoin: bevel;
			stroke-miterlimit: 10;
		}

		.rotation01 {
			fill: none;
			stroke: #ffffff;
			stroke-width: 40;
			stroke-miterlimit: 10;
			stroke-dasharray: 1.003755e-2, 10.0275, 7.0263, 0, 0, 0;
			animation: rotating 22s linear infinite;
			transform-origin: center;
		}

		.rotation02 {
			animation: dash 2.5s linear infinite;
		}

		@keyframes dash {
			0% {
				stroke-dashoffset: 0;
			}

			100% {
				stroke-dashoffset: -100;
			}
		}

		.rotation03 {
			animation: dash 1.5s linear infinite;
		}

		@keyframes rotating {
			from {
				transform: rotate(0deg);
			}

			to {
				transform: rotate(360deg);
			}
		}

		@keyframes rotating-out {
			from {
				transform: rotate(0deg);
			}

			to {
				transform: rotate(-360deg);
			}
		}

		.trastion {
			transform-box: fill-box;
			transform-origin: center;
			animation: rotating 6s linear infinite;
		}

		.trastion-out {
			transform-box: fill-box;
			transform-origin: center;
			animation: rotating-out 6s linear infinite;
		}

		.pls {
			fill: #fff;
			animation: rotating 6s linear infinite;
			transform-box: fill-box;
			transform-origin: center;
		}
		.trastion-out-main{
			animation: rotating 20s linear infinite;
			transform-box: fill-box;
			transform-origin: center;
		}
	</style>
	<g>
		<circle class="main0 trastion-out-main" cx="600" cy="600" r="513.9" />
		<circle class="main1" cx="600" cy="604.3" r="425.4" />
		<g>
			<path class="main2" d="M337.7,173.2l0.6-3h2.7l-0.6,3H337.7z" />
			<path class="main3" d="M959.4,604.4c0,199.6-161.9,361.5-361.5,361.5S236.4,804,236.4,604.4c0-199.7,161.9-361.5,361.5-361.5
			C797.5,242.9,959.4,404.8,959.4,604.4z" />
			<g>
				<path class="main4" d="M403.7,299.1c0,25.5-20.7,46.1-46.1,46.1s-46.1-20.7-46.1-46.1s20.7-46.1,46.1-46.1
				C383.1,253,403.7,273.6,403.7,299.1z" />
				<g>
					<polygon class="main5"
						points="405.9,250.1 353.5,250.1 353.5,300 366.3,300 363.4,317 376.2,300 405.9,300 				" />
					<g>
						<path d="M377.1,282.5c-0.7,0-1.4-0.3-1.9-0.8l-4.3-4.5c-1-1-1-2.7,0.1-3.7s2.7-1,3.7,0.1l2.2,2.4l7.6-9.3
						c0.9-1.1,2.6-1.3,3.7-0.4s1.3,2.6,0.4,3.7l-9.5,11.5C378.6,282.1,377.9,282.5,377.1,282.5C377.2,282.5,377.1,282.5,377.1,282.5
						L377.1,282.5z" />
					</g>
				</g>
			</g>
			<g class="trastion-out">
				<g>
					<path class="main6" d="M256.2,707.9c2.3-7.5,6.1-14.6,11.3-20.8l-0.1,0.1l-7.1-14.4l12.8-10.4l12.7,9.8l-0.1,0.1
					c7.2-3.8,14.9-6.1,22.7-6.8l5.2-15.1l16.4,1.7l2,15.9c7.5,2.3,14.6,6.1,20.9,11.2l14.3-7l10.4,12.8l-9.8,12.6
					c3.8,7.2,6.1,14.9,6.8,22.7l15.1,5.2l-1.7,16.4l-15.9,2c-2.3,7.5-6.1,14.6-11.2,20.9l7,14.3l-12.7,10.2l-12.6-9.8
					c-7.2,3.8-14.9,6-22.7,6.8l-5.2,15.2l-16.4-1.7l-2-15.9c-7.5-2.3-14.6-6.1-20.8-11.2l-14.4,7.1L250.7,767l9.8-12.7
					c-3.8-7.2-6-14.9-6.7-22.7l-15.2-5.2l1.7-16.4L256.2,707.9z M331.7,711.8c-7.9-9.6-22-11.1-31.6-3.2c-9.6,7.8-11.1,22-3.3,31.6
					s22,11.1,31.7,3.3C338,735.5,339.5,721.3,331.7,711.8z" />
				</g>
				<g>
					<path class="main7" d="M343.9,757.9c-17.7,16.8-45.7,16-62.5-1.7s-16-45.7,1.7-62.5" />
					<path class="main7" d="M353.5,744.8c-1.2,2.5-2.6,4.9-4.2,7.1" />
				</g>
				<g>
					<path class="main7" d="M291.8,702.5c13.3-12.6,34.3-12.1,47,1.2c12.6,13.3,12.1,34.3-1.2,47" />
					<path class="main7" d="M284.7,712.4c0.9-1.9,1.9-3.6,3.2-5.3" />
				</g>
			</g>
			<g>

				<rect x="461.8" y="301" transform="matrix(1 -2.870439e-03 2.870439e-03 1 -0.9015 1.6706)" class="main8"
					width="239.5" height="27.8" />
				<polygon points="701.3,313.1 464,313.8 464,316.5 701.3,315.8 			" />

				<rect x="705.1" y="300.6" transform="matrix(1 -3.157613e-03 3.157613e-03 1 -0.9895 2.255)" class="main9"
					width="17.1" height="27.8" />
				<path class="main7" d="M726,326.5L726,326.5h4.1c3.9,0,7-3.2,7-7v-9.9c0-3.9-3.2-7-7-7H726l0,0V326.5z" />
				<path class="main10"
					d="M462,328.8l-0.1-27c-0.4,0-0.8-0.1-1.2-0.1l-33.9,13.6l34.4,13.6C461.5,328.8,461.7,328.8,462,328.8z" />
				<polygon class="main11" points="436.2,311.8 426.8,315.3 436.2,318.8 			" />
			</g>
			<g>
				<g>
					<path class="main9" d="M414.7,925.8V629.6h323.8L414.7,925.8z M468.5,683.5v120l131.1-120H468.5z" />
				</g>
				<g>
					<path class="main7" d="M692.6,655.1c0-8.5,0-17,0-25.5" />
					<path class="main7" d="M654.8,655.1c0-8.5,0-17,0-25.5" />
					<path class="main7" d="M673.7,643.1c0-4.5,0-9,0-13.5" />
					<path class="main7" d="M635.9,643.1c0-4.5,0-9,0-13.5" />
					<path class="main7" d="M617,655.1c0-8.5,0-17,0-25.5" />
					<path class="main7" d="M579.2,655.1c0-8.5,0-17,0-25.5" />
					<path class="main7" d="M598.1,643.1c0-4.5,0-9,0-13.5" />
					<path class="main7" d="M560.3,643.1c0-4.5,0-9,0-13.5" />
					<path class="main7" d="M541.4,655.1c0-8.5,0-17,0-25.5" />
					<path class="main7" d="M503.6,655.1c0-8.5,0-17,0-25.5" />
					<path class="main7" d="M522.5,643.1c0-4.5,0-9,0-13.5" />
					<path class="main7" d="M484.7,643.1c0-4.5,0-9,0-13.5" />
					<path class="main7" d="M465.8,655.1c0-8.5,0-17,0-25.5" />
					<path class="main7" d="M428,655.1c0-8.5,0-17,0-25.5" />
					<path class="main7" d="M446.9,643.1c0-4.5,0-9,0-13.5" />
				</g>
			</g>
			<g>
				<rect x="596.7" y="808.1" class="main12 rotation02" width="115" height="115" />
				<g>
					<g>
						<rect x="585" y="793.1" class="main13" width="30.1" height="30.1" />
						<rect x="693.3" y="793.1" class="main13" width="30.1" height="30.1" />
					</g>
					<g>
						<rect x="585" y="908.1" class="main13" width="30.1" height="30.1" />
						<rect x="693.3" y="908.1" class="main13" width="30.1" height="30.1" />
					</g>
				</g>
			</g>
			<g>
				<rect x="756.7" y="318.1" class="main13" width="174.5" height="236.1" />
				<path class="main14" d="M756.7,544v58.1c0,7.7,6.3,14,14,14h146.4c7.7,0,14-6.3,14-14V544H756.7z" />
				<path class="main14" d="M931.2,327.8v-25.4c0-7.7-6.3-14-14-14H770.8c-7.8,0-14,6.3-14,14v25.4H931.2z" />
				<g>
					<path d="M844,583.2c3.1,0,5.6,2.6,5.6,5.7c0,3.1-2.5,5.6-5.6,5.6l0,0c-3.1,0-5.6-2.6-5.6-5.7C838.4,585.8,840.9,583.2,844,583.2
					" />
				</g>
				<g>
					<line class="main7" x1="862.5" y1="306.8" x2="808" y2="306.8" />
					<path class="main7" d="M880,306.8c-2.7,0-5.4,0-8.1,0" />
				</g>
				<g>
					<rect x="781.2" y="354" class="main14" width="125.5" height="99" />
					<g>
						<rect x="786.5" y="360.5" class="main4" width="112.8" height="86.1" />
						<path class="main5"
							d="M896.3,363.6v80H789.6v-80H896.3 M902.4,357.5h-119v92.2h119V357.5L902.4,357.5z" />
					</g>
					<path class="main13"
						d="M878.5,389.5c0,7.8-6.3,14.1-14.1,14.1s-14.2-6.3-14.2-14.1s6.3-14.1,14.2-14.1S878.5,381.6,878.5,389.5z" />
					<polyline class="main15" points="895.7,445.5 879.6,428.1 853,443.5 824.8,406.1 790.7,444.5 				" />
					<path class="main13" d="M886.9,438.8" />
					<path class="main13" d="M800.9,439.6" />
				</g>
				<g>
					<rect x="813.5" y="463.8" class="main9" width="62.4" height="4.9" />
					<rect x="775.7" y="475.2" width="136.6" height="4.9" />
					<rect x="775.7" y="513.5" class="main4" width="136.6" height="4.9" />
					<rect x="775.7" y="504.5" class="main4" width="136.6" height="4.9" />
					<g>
						<g>
							<rect x="775.7" y="483.8" class="main9" width="65.6" height="16.6" />
						</g>
						<g>
							<rect x="846.2" y="483.8" width="65.6" height="16.6" />
						</g>
					</g>
				</g>
			</g>
			<g>
				<rect x="450" y="431.9" class="main16 rotation03" width="226.7" height="178.5" />
				<g>
					<rect x="483.2" y="387.5" class="main7" width="226.6" height="178.7" />
					<g>
						<rect x="490.4" y="396.8" class="main9" width="208.6" height="160.3" />
						<path class="main5"
							d="M695.9,399.8V554H493.4V399.8H695.9 M702,393.8H487.3v166.4H702V393.8L702,393.8z" />
					</g>
					<path class="main5" d="M658.8,451.5c0,14.1-11.4,25.5-25.5,25.5s-25.6-11.4-25.6-25.5s11.5-25.5,25.6-25.5
					C647.3,426,658.8,437.3,658.8,451.5z" />
					<polyline class="main15" points="689.9,556.5 660.8,523.3 612.7,550.8 561.9,483.6 498.3,556.9 				" />
					<path class="main13" d="M673.9,540.3" />
					<path class="main13" d="M518.7,542" />
				</g>
			</g>
			<g class="trastion">
				<path class="main5" d="M984.1,523.6c0,0.5,0,1-0.1,1.3c-0.1,0.4-0.1,0.7-0.3,0.9c-0.1,0.2-0.2,0.4-0.4,0.5s-0.3,0.1-0.5,0.1H974
				v9.7c0,0.2,0,0.4-0.1,0.5s-0.3,0.3-0.5,0.4c-0.2,0.1-0.5,0.2-0.9,0.2c-0.4,0.1-0.9,0.1-1.4,0.1c-0.6,0-1,0-1.4-0.1
				s-0.7-0.1-0.9-0.2c-0.2-0.1-0.4-0.2-0.5-0.4c-0.1-0.1-0.2-0.3-0.2-0.5v-9.7H959c-0.2,0-0.3,0-0.5-0.1c-0.1-0.1-0.3-0.2-0.4-0.5
				c-0.1-0.2-0.2-0.5-0.3-0.9s-0.1-0.8-0.1-1.3s0-1,0.1-1.3c0.1-0.4,0.1-0.7,0.2-0.9s0.2-0.4,0.4-0.5c0.1-0.1,0.3-0.1,0.5-0.1h9
				v-9.7c0-0.2,0-0.4,0.2-0.5c0.1-0.2,0.3-0.3,0.5-0.4s0.5-0.2,0.9-0.2c0.4-0.1,0.9-0.1,1.4-0.1c0.6,0,1.1,0,1.4,0.1
				c0.4,0,0.7,0.1,0.9,0.2s0.4,0.2,0.5,0.4c0.1,0.2,0.1,0.3,0.1,0.5v9.7h9c0.2,0,0.3,0,0.5,0.1c0.1,0.1,0.3,0.3,0.4,0.5
				c0.1,0.2,0.2,0.5,0.2,0.9C984.1,522.6,984.1,523.1,984.1,523.6z" />
			</g>
			<g class="trastion-out">
				<path class="main5" d="M226.6,645.8c0,0.6,0,1.1-0.1,1.4c-0.1,0.4-0.2,0.7-0.3,1c-0.1,0.2-0.3,0.4-0.4,0.5
				c-0.2,0.1-0.3,0.2-0.5,0.2h-9.6v10.5c0,0.2-0.1,0.4-0.2,0.5c-0.1,0.2-0.3,0.3-0.5,0.4c-0.2,0.1-0.6,0.2-1,0.3s-0.9,0.1-1.5,0.1
				s-1.1,0-1.5-0.1s-0.7-0.2-1-0.3c-0.2-0.1-0.4-0.2-0.5-0.4s-0.2-0.3-0.2-0.5v-10.5h-9.6c-0.2,0-0.3,0-0.5-0.2
				c-0.2-0.1-0.3-0.3-0.4-0.5c-0.1-0.2-0.2-0.6-0.3-1s-0.1-0.9-0.1-1.4c0-0.6,0-1,0.1-1.4s0.1-0.7,0.3-1c0.1-0.2,0.2-0.4,0.4-0.5
				c0.1-0.1,0.3-0.2,0.5-0.2h9.7v-10.5c0-0.2,0-0.4,0.2-0.6c0.1-0.2,0.3-0.3,0.5-0.4c0.2-0.1,0.6-0.2,1-0.3s0.9-0.1,1.5-0.1
				s1.1,0,1.5,0.1s0.7,0.1,1,0.3c0.2,0.1,0.4,0.2,0.5,0.4s0.2,0.4,0.2,0.6v10.5h9.7c0.2,0,0.3,0,0.5,0.2c0.2,0.1,0.3,0.3,0.4,0.5
				c0.1,0.2,0.2,0.6,0.3,1C226.6,644.8,226.6,645.2,226.6,645.8z" />
			</g>
			<g>
				<g>
					<path class="main5" d="M307,460.1c-51.9,0-96.2,25.5-113.8,61.3c17.6,35.9,61.9,61.3,113.8,61.3s96.2-25.5,113.8-61.3
					C403.2,485.5,358.9,460.1,307,460.1z" />
					<path class="main17" d="M249.3,521.4c0-31.8,25.8-57.6,57.6-57.6s57.6,25.8,57.6,57.6S338.7,579,306.9,579
					S249.3,553.2,249.3,521.4z" />
					<path class="main7" d="M307,460.1c-51.9,0-96.2,25.5-113.8,61.3c17.6,35.9,61.9,61.3,113.8,61.3s96.2-25.5,113.8-61.3
					C403.2,485.5,358.9,460.1,307,460.1z" />
					<g class="trastion">
						<path class="main9" d="M323.2,494L307,521.4v-31.9c-17.6,0-31.9,14.3-31.9,31.9c0,17.6,14.3,31.9,31.9,31.9s31.9-14.3,31.9-31.9
						C338.9,509.8,332.6,499.5,323.2,494z" />
					</g>
				</g>
			</g>
			<g>
				<path class="main5" d="M745.5,775.1h-0.6c6.7,8.1,11.6,36,14.2,46.6h77.5c2.5-10.3,7.2-38.1,13.8-46c16.1-14.4,26.3-35.2,26.3-58.5
				c0-43.3-35.1-78.4-78.3-78.4c-43.3,0-78.4,35.1-78.4,78.4C719.9,740.1,729.7,760.8,745.5,775.1z" />
				<path class="main18" d="M762.7,865c1.2,18.4,22.6,15.4,35.3,15.5c13,0.1,35.5,3.5,35.7-16" />
				<g>
					<g>
						<line class="main7" x1="786" y1="728.2" x2="786" y2="816.9" />
						<line class="main7" x1="810.5" y1="728.2" x2="810.5" y2="816.9" />
					</g>
					<line class="main7" x1="770.2" y1="729.2" x2="826.2" y2="729.2" />
				</g>
				<g>
					<path class="main7" d="M748.2,740.4c-14.3-24.7-5.8-56.3,18.9-70.6s56.3-5.8,70.6,18.9" />
					<path class="main7" d="M760.6,754.8c-2.5-2-4.8-4.3-6.9-6.7" />
				</g>
				<g>
					<line class="main19" x1="760.9" y1="853.2" x2="760.9" y2="823.3" />
					<g>
						<rect x="796.7" y="859.8" width="40.2" height="6.1" />
					</g>
					<g>
						<rect x="796.7" y="847.8" width="40.2" height="6.1" />
					</g>
				</g>
			</g>
			<g>
				<rect x="906.6" y="647.1" class="main20" width="33.4" height="33.4" />
				<line class="main21" x1="906.6" y1="646.7" x2="939.9" y2="680.9" />
				<line class="main21" x1="939.9" y1="646.7" x2="906.6" y2="680.9" />
			</g>
			<g>
				<path class="main13" d="M406.4,437.2l-30.9-53.5c-2.5-4.3-4.5-11.9-4.5-16.9v-26c0-3.1,0.6-5.8,1.4-7.5h0.8c3,0,5.4-2.4,5.4-5.3
				c0-3-2.4-5.4-5.4-5.4h-28.1c-3,0-5.3,2.4-5.3,5.4s2.4,5.3,5.3,5.3h0.8c0.9,1.6,1.4,4.4,1.4,7.5v26c0,5-2,12.6-4.5,16.9
				l-30.9,53.5c-2.5,4.3-0.5,7.8,4.5,7.8h85.3C406.9,445.1,408.9,441.5,406.4,437.2z" />
				<g>
					<polygon class="main22" points="316.2,440 331.1,414.2 387.5,414.2 402.3,440 				" />
				</g>
				<path class="main23"
					d="M366.1,333.5h-20.8c-3,0-5.3-2.4-5.3-5.3l0,0c0-3,2.4-5.4,5.3-5.4h28.1c3,0,5.4,2.4,5.4,5.4" />
			</g>
			<g>
				<g>
					<path d="M537.9,941.2l14.1-9.8c0.5-0.1,0.9-0.3,1.2-0.7c0.2-0.3,0.3-0.7,0.3-1.1c0-0.4-0.1-0.7-0.3-1.1
					c-0.3-0.4-0.7-0.6-1.2-0.7l-14.1-9.8c-0.8-0.5-1.8-0.3-2.3,0.4c-0.5,0.8-0.3,1.8,0.4,2.3l12.7,8.8l-12.7,8.8
					c-0.8,0.5-1,1.6-0.4,2.3C536.1,941.5,537.2,941.8,537.9,941.2z" />
				</g>
				<g>
					<path d="M522.8,941.2l14.1-9.8c0.4-0.1,0.9-0.3,1.2-0.7c0.2-0.3,0.3-0.7,0.3-1.1c0-0.4-0.1-0.7-0.3-1.1
					c-0.3-0.4-0.7-0.6-1.2-0.7l-14.1-9.8c-0.8-0.5-1.8-0.3-2.3,0.4c-0.5,0.8-0.3,1.8,0.4,2.3l12.7,8.8l-12.7,8.8
					c-0.8,0.5-1,1.6-0.4,2.3C521,941.5,522,941.8,522.8,941.2z" />
				</g>
				<g>
					<path d="M507.7,941.8l14.1-9.8c0.5-0.1,0.9-0.3,1.2-0.7c0.2-0.3,0.3-0.7,0.3-1.1c0-0.4-0.1-0.7-0.3-1.1
					c-0.3-0.4-0.7-0.6-1.2-0.7l-14.1-9.8c-0.8-0.5-1.8-0.3-2.3,0.4c-0.5,0.8-0.3,1.8,0.4,2.3l12.7,8.8l-12.7,8.8
					c-0.8,0.5-1,1.6-0.4,2.3C505.9,942.1,506.9,942.3,507.7,941.8z" />
				</g>
				<g>
					<path d="M492.6,941.8l14.1-9.8c0.5-0.1,0.9-0.3,1.2-0.7c0.2-0.3,0.3-0.7,0.3-1.1c0-0.4-0.1-0.7-0.3-1.1
					c-0.3-0.4-0.7-0.6-1.2-0.7l-14.1-9.8c-0.8-0.5-1.8-0.3-2.3,0.4c-0.5,0.8-0.3,1.8,0.4,2.3l12.7,8.8l-12.7,8.8
					c-0.8,0.5-1,1.6-0.4,2.3C490.8,942.1,491.8,942.3,492.6,941.8z" />
				</g>
			</g>
		</g>
	</g>
</svg>